<svg version="1.1" id="Layer_1" xmlns="http://www.w3.org/2000/svg" xmlns:xlink="http://www.w3.org/1999/xlink" x="0px" y="0px"
	 width="100%" viewBox="0 0 2044 840" enable-background="new 0 0 2044 840" xml:space="preserve">
<path fill="#FFFFFF" opacity="1.000000" stroke="none" 
	d="
M2045.000000,536.000000 
	C2045.000000,637.648987 2045.000000,739.298035 2045.000000,841.000000 
	C1364.969116,841.000000 684.938171,841.000000 4.611918,840.672180 
	C9.295376,838.240479 14.181844,835.875122 19.269150,834.078552 
	C39.631523,826.887268 59.925762,819.462585 80.496834,812.914795 
	C98.866806,807.067688 117.504234,802.021118 136.142365,797.068115 
	C152.355652,792.759399 168.734894,789.075134 185.455536,785.068787 
	C203.645172,781.483643 221.400330,777.841309 239.201370,774.438965 
	C253.003189,771.801086 266.865723,769.481812 280.694794,766.985107 
	C289.480286,765.398865 298.253967,763.747070 307.465668,762.075806 
	C312.586517,761.350952 317.275848,760.682983 321.962555,759.997314 
	C333.763123,758.271057 345.566132,756.561279 357.361389,754.799377 
	C370.117432,752.893921 382.856506,750.872925 395.620148,749.020508 
	C408.069244,747.213745 420.540039,745.556580 433.429321,743.898560 
	C434.688690,743.967346 435.533691,744.071289 436.349426,743.960205 
	C448.349365,742.326904 460.324860,740.492493 472.347961,739.056152 
	C485.384064,737.498901 498.469391,736.358704 511.522797,734.940430 
	C526.688171,733.292725 541.842224,731.540588 557.417847,729.876099 
	C563.184998,729.278992 568.526184,728.545349 573.888000,728.022156 
	C581.894226,727.240906 589.925049,726.706238 597.927124,725.888733 
	C609.817627,724.674011 621.679016,723.163696 633.577759,722.044617 
	C643.068054,721.151978 652.603760,720.750610 662.103027,719.940674 
	C666.433472,719.571350 670.724792,718.742188 675.492126,718.073242 
	C688.424133,717.019836 700.896667,715.999573 713.371887,715.013428 
	C730.446838,713.663757 747.519531,712.281189 764.601257,711.022217 
	C780.062439,709.882751 795.534424,708.890259 811.433472,707.898193 
	C818.904968,707.309448 825.936523,706.546997 832.985901,706.024353 
	C847.463806,704.950867 861.949036,703.971680 876.435425,703.017090 
	C892.249268,701.974976 908.065979,700.973389 923.885010,700.012817 
	C936.587769,699.241455 949.295959,698.557556 962.452026,697.899658 
	C972.254578,697.310364 981.602844,696.594238 990.959839,696.017761 
	C1002.802124,695.288208 1014.649536,694.634949 1026.498291,694.015747 
	C1046.260498,692.982849 1066.022217,691.931641 1085.790649,691.027954 
	C1097.520996,690.491638 1109.263550,690.223083 1121.424316,689.896973 
	C1124.938477,689.639648 1128.021973,689.188110 1131.120728,689.022034 
	C1144.476562,688.306274 1157.833984,687.605286 1171.196289,687.028870 
	C1188.379517,686.287598 1205.569092,685.696533 1222.753784,684.988220 
	C1230.505249,684.668762 1238.251709,684.222351 1246.464844,683.899292 
	C1254.855957,683.644470 1262.781250,683.289734 1270.709229,683.010193 
	C1290.222656,682.321960 1309.737427,681.669495 1329.251587,681.000122 
	C1340.501343,680.614258 1351.750854,680.223328 1363.465088,679.900635 
	C1397.953247,678.922180 1431.976807,677.877808 1466.464844,676.899658 
	C1501.619751,676.255798 1536.310181,675.545654 1571.432983,674.901062 
	C1578.596069,674.644226 1585.323853,674.155518 1592.058228,674.029785 
	C1614.709229,673.606567 1637.362671,673.312927 1660.015137,672.963867 
	C1660.344116,672.958801 1660.671997,672.878540 1661.453979,672.899170 
	C1666.004395,672.643738 1670.097534,672.108643 1674.198730,672.036316 
	C1697.258789,671.629639 1720.320312,671.320496 1743.381958,671.011353 
	C1748.657715,670.940613 1753.935303,671.001038 1759.212036,671.001038 
	C1756.720093,669.998657 1754.243286,670.115295 1751.781250,669.973450 
	C1747.211548,669.710205 1742.650635,669.295959 1738.054688,668.547546 
	C1739.383667,663.783936 1740.744019,659.417419 1742.396729,654.874390 
	C1744.141602,652.168030 1745.594238,649.638123 1747.339844,646.936279 
	C1749.104004,644.545776 1750.575317,642.327209 1752.340820,639.935181 
	C1754.218140,637.451416 1755.801270,635.141052 1757.619385,632.559448 
	C1759.663452,629.724365 1761.472412,627.160522 1763.553711,624.367920 
	C1765.567871,621.460876 1767.309570,618.782532 1769.354492,615.919678 
	C1770.789429,612.857666 1771.921143,609.980103 1773.372070,606.887939 
	C1774.405396,602.448303 1775.119629,598.223389 1775.898804,593.556885 
	C1776.568481,578.809631 1768.957397,568.599182 1758.541748,560.424133 
	C1751.153564,554.625427 1742.190552,553.432678 1732.579346,555.934143 
	C1729.119019,557.617310 1726.033569,559.256653 1722.638794,561.042725 
	C1720.184448,563.442810 1718.039551,565.696106 1715.588013,568.097290 
	C1713.837036,570.795654 1712.392700,573.346191 1710.640137,576.087097 
	C1709.180664,580.174133 1708.029297,584.070801 1706.546265,588.227295 
	C1706.198364,592.324341 1706.182251,596.161621 1706.100586,600.449402 
	C1706.411987,604.600159 1706.789062,608.300415 1707.101074,612.410828 
	C1708.745972,618.547485 1710.456055,624.274048 1712.114014,630.364990 
	C1719.676025,643.466003 1727.290161,656.202515 1734.442627,668.963318 
	C1709.654053,668.714050 1685.327148,668.440369 1660.536133,668.099731 
	C1630.381348,668.076660 1600.691040,668.120605 1570.536133,668.098022 
	C1535.381226,668.076538 1500.690796,668.121582 1465.536011,668.100098 
	C1431.047974,668.410767 1397.024170,668.788025 1362.536133,669.098938 
	C1323.381226,669.743958 1284.690796,670.455261 1245.579590,671.122803 
	C1243.732544,671.385315 1242.313965,671.914307 1240.878906,671.962708 
	C1229.142090,672.359192 1217.401611,672.646301 1205.663452,673.005981 
	C1195.751465,673.309692 1185.842651,673.717041 1175.929932,673.986572 
	C1161.865723,674.369019 1147.796997,674.601685 1133.734741,675.040527 
	C1129.482544,675.173218 1125.244873,675.777527 1120.536255,676.099487 
	C1111.973511,676.354614 1103.874146,676.650330 1095.777100,677.002930 
	C1080.911377,677.650269 1066.046143,678.313538 1051.182373,679.003113 
	C1037.315186,679.646423 1023.450806,680.348999 1009.583862,680.996033 
	C993.723938,681.736084 977.862427,682.443542 961.573853,683.099182 
	C953.441895,683.687988 945.744385,684.438232 938.031982,684.974670 
	C927.159302,685.731018 916.274109,686.305969 905.396973,687.000244 
	C890.077209,687.978210 874.759827,688.992981 859.441589,689.994629 
	C843.294861,691.050476 827.148315,692.109436 810.564575,693.101013 
	C794.911560,694.341797 779.697998,695.675964 764.479126,696.946899 
	C751.864075,698.000488 739.243225,698.985046 726.624146,699.990051 
	C709.083557,701.387085 691.542236,702.774536 673.579346,704.103027 
	C660.588928,705.360046 648.025513,706.733154 635.450073,707.984375 
	C624.484497,709.075317 613.493469,709.916443 602.534973,711.070435 
	C587.346558,712.669678 572.178162,714.458252 556.602295,716.259155 
	C553.432861,716.603577 550.653381,716.782166 547.893127,717.118164 
	C537.492004,718.384521 527.100464,719.729370 516.698975,720.992310 
	C507.261383,722.138184 497.805420,723.137024 488.375854,724.343567 
	C476.851685,725.818115 465.341034,727.402283 453.835297,729.015625 
	C446.880096,729.990723 439.945282,731.111023 432.573059,732.100586 
	C430.210083,732.347656 428.279816,732.691772 426.339874,732.967773 
	C407.346863,735.669739 388.305939,738.073547 369.370544,741.131531 
	C348.530304,744.497070 327.786713,748.461304 306.595886,752.119629 
	C300.437378,753.227966 294.680298,754.363403 288.931244,755.538086 
	C268.616028,759.688843 248.254715,763.631042 228.006332,768.086182 
	C213.244110,771.334229 198.632172,775.265381 183.543030,778.934387 
	C182.159073,779.113403 181.156418,779.144592 180.215775,779.402161 
	C157.666046,785.575012 135.098633,791.685120 112.584770,797.986450 
	C83.374748,806.162048 54.927303,816.514709 27.064678,828.479248 
	C18.336811,832.227173 9.686034,836.154663 0.999999,840.000000 
	C1.000000,560.430054 1.000000,280.860107 1.000000,1.000000 
	C113.697418,1.000000 226.395081,1.000000 339.412415,1.317765 
	C337.473572,3.052640 335.215088,4.469749 332.602356,5.943857 
	C330.999939,6.724089 329.684418,7.352829 328.514557,8.186082 
	C321.549408,13.147260 314.617889,18.155703 307.301819,23.163689 
	C299.579926,29.992233 292.205994,36.778526 284.915558,43.653408 
	C284.031830,44.486782 283.598663,45.797935 282.650299,47.038887 
	C281.633026,47.888912 280.845154,48.525524 280.222656,49.295776 
	C269.602509,62.436646 261.695160,77.106514 256.522308,93.136192 
	C254.005173,100.936325 251.964371,109.263199 255.787140,117.164314 
	C259.846161,125.553749 264.611908,133.619797 269.424347,141.613159 
	C270.631317,143.617889 273.199463,144.803131 276.342377,147.330078 
	C280.077026,140.784912 283.255890,135.213776 286.731506,129.467834 
	C291.594879,122.402580 296.099518,115.469948 300.748871,108.635780 
	C304.105164,103.702301 307.653931,98.899757 311.414246,93.897781 
	C319.474609,86.449173 327.237579,79.141594 335.331512,71.786644 
	C344.121826,65.864731 352.581116,59.990185 361.404144,54.055077 
	C372.730255,49.602394 383.692688,45.210274 394.985199,40.685898 
	C388.133148,24.002764 377.070160,10.835490 359.649078,3.088688 
	C357.863922,2.340985 356.431976,1.670496 355.000000,1.000003 
	C918.228943,1.000000 1481.457886,1.000000 2045.000000,1.000000 
	C2045.000000,170.364120 2045.000000,339.728424 2044.613892,509.365784 
	C2043.186279,491.821136 2038.330688,475.208557 2029.374512,459.671967 
	C2023.201904,448.963867 2015.497437,439.500610 2006.071411,431.828613 
	C1988.406006,417.450653 1967.923462,408.750610 1945.136108,407.189056 
	C1927.093994,405.952728 1908.984985,406.579224 1891.562988,412.781403 
	C1871.980957,419.752655 1855.164917,430.469849 1841.675659,446.642822 
	C1825.367065,466.195923 1817.570312,488.835510 1816.201782,513.747986 
	C1815.646240,523.860352 1816.544067,534.222046 1818.151001,544.250732 
	C1822.330933,570.336548 1834.704346,591.901489 1855.242798,608.855469 
	C1875.149414,625.287781 1898.244385,633.920959 1923.512329,635.682861 
	C1938.569824,636.732788 1954.008911,635.828918 1968.984009,633.723572 
	C1991.791626,630.517090 2011.450806,619.964111 2027.960327,603.674500 
	C2030.539551,601.129761 2030.233887,599.084229 2028.339844,596.919739 
	C2019.553955,586.879456 2010.647827,576.944397 2001.892456,567.092834 
	C1996.964600,570.892151 1992.524902,574.780701 1987.642578,577.997314 
	C1968.323242,590.725159 1947.198853,594.080627 1924.554077,590.072266 
	C1900.865356,585.879028 1883.287354,573.779480 1873.311035,551.572815 
	C1871.599731,547.763672 1870.796509,543.546448 1869.416748,539.000000 
	C1872.437012,539.000000 1874.255371,539.000000 1876.073730,539.000000 
	C1930.388428,539.000000 1984.703125,538.988220 2039.017822,539.035645 
	C2041.653931,539.037903 2044.125488,539.232483 2045.000000,536.000000 
M1731.175781,482.034363 
	C1729.783936,482.078247 1728.392090,482.122131 1726.248779,482.036682 
	C1724.833862,482.413483 1723.418945,482.790283 1721.200562,483.036926 
	C1719.134521,483.413422 1717.068481,483.789917 1714.194336,484.096863 
	C1713.818726,485.679565 1712.888794,487.372955 1713.178223,488.822876 
	C1713.867676,492.275940 1715.133545,495.613953 1716.065063,499.756104 
	C1717.338501,503.184235 1718.611938,506.612335 1719.979736,510.814026 
	C1721.041748,513.876221 1722.103882,516.938354 1723.070435,520.786133 
	C1724.639038,527.691528 1726.207642,534.596924 1727.655640,540.971497 
	C1733.312744,540.600464 1739.156494,540.217163 1745.818237,539.962036 
	C1748.878784,540.585999 1751.939453,541.209900 1755.614868,542.126831 
	C1756.367065,541.853271 1757.668335,541.720154 1757.780273,541.282837 
	C1758.386963,538.910889 1758.699951,536.463745 1759.728638,533.625244 
	C1760.189209,531.431641 1760.649780,529.237976 1761.728882,526.618225 
	C1762.097168,524.411377 1762.465454,522.204590 1763.164429,519.355591 
	C1763.387695,518.236023 1763.610962,517.116394 1764.165161,515.355042 
	C1764.388184,514.235596 1764.611206,513.116150 1765.182373,511.329773 
	C1765.492920,509.900726 1765.803589,508.471649 1766.731567,506.626923 
	C1767.194946,504.429810 1767.658203,502.232697 1768.749756,499.595154 
	C1769.699463,495.406433 1770.649170,491.217743 1771.794556,486.165924 
	C1764.324097,485.039062 1757.182251,483.961823 1749.528442,482.216431 
	C1746.020142,482.199890 1742.511719,482.183319 1738.135376,482.034393 
	C1736.091187,482.078339 1734.046875,482.122284 1731.175781,482.034363 
M161.668640,217.809891 
	C167.385834,213.519562 173.103027,209.229248 178.820221,204.938934 
	C178.606171,204.348022 178.392120,203.757126 178.178070,203.166214 
	C172.119171,203.166214 166.060272,203.166214 159.190643,203.357758 
	C157.440781,203.571640 155.694366,203.821106 153.940292,203.991776 
	C150.613342,204.315491 147.281982,204.594025 143.065308,204.975525 
	C137.710510,205.705780 132.355713,206.436035 126.216278,207.068649 
	C120.478317,208.767868 114.740349,210.467087 108.248291,212.062836 
	C102.227837,214.563568 96.207375,217.064301 89.611832,219.875702 
	C84.742020,222.639114 79.872215,225.402542 74.322449,228.262878 
	C66.696198,233.913284 59.069939,239.563705 51.443684,245.214111 
	C51.744617,245.754089 52.045555,246.294067 52.346489,246.834045 
	C60.231716,246.834045 68.116943,246.834045 76.861771,246.963425 
	C82.241737,246.253616 87.621712,245.543808 93.831696,244.962646 
	C99.221924,243.919754 104.612152,242.876846 110.735573,241.692062 
	C116.490669,239.739563 122.245758,237.787048 128.711182,235.712204 
	C134.141052,233.086380 139.570923,230.460556 145.690216,227.729492 
	C150.807312,224.524551 155.924393,221.319626 161.668640,217.809891 
M306.727509,136.936600 
	C311.485046,134.568832 316.242584,132.201065 321.682526,129.731247 
	C326.455048,126.765213 331.227570,123.799179 336.667908,120.732460 
	C341.794464,116.524078 346.921021,112.315704 352.738403,107.997116 
	C358.509338,102.365517 364.280243,96.733917 370.640808,90.756828 
	C370.935913,90.175354 371.160126,89.542847 371.536530,89.019920 
	C379.349579,78.166595 387.194214,67.335945 394.977570,56.461441 
	C395.553101,55.657375 395.712372,54.555397 396.353424,52.804638 
	C385.782135,54.906654 376.337372,57.455109 367.184937,63.015606 
	C361.439728,66.642174 355.694519,70.268745 349.248291,74.002068 
	C344.130432,77.984657 339.012543,81.967255 333.296143,86.232552 
	C330.451080,88.744171 327.469635,91.120567 324.803833,93.809868 
	C322.637817,95.994965 320.850433,98.555374 318.297180,101.232574 
	C313.850525,106.450867 309.403870,111.669159 304.337006,117.200653 
	C299.043396,124.686241 294.041840,132.313263 291.629272,142.963699 
	C297.224457,140.576920 301.611542,138.705460 306.727509,136.936600 
M196.230240,145.004395 
	C194.111084,146.188156 191.913589,147.252274 189.887848,148.578690 
	C184.359818,152.198380 182.938782,156.562256 185.970886,162.564804 
	C189.325317,169.205414 193.231125,175.567490 197.005127,182.767365 
	C198.472839,185.449280 199.604340,188.402466 201.493805,190.744034 
	C203.828110,193.636902 207.028763,195.333664 211.811493,194.025696 
	C216.223343,191.719620 220.635193,189.413544 225.770370,186.994247 
	C230.527481,184.367874 235.284576,181.741486 240.754288,178.995346 
	C245.186020,176.365753 249.617752,173.736160 254.761948,170.993759 
	C257.187439,169.657730 259.643738,168.374283 262.032104,166.974930 
	C267.330688,163.870438 269.648224,158.524216 267.140106,153.683517 
	C262.711548,145.136246 257.831573,136.822861 253.048889,127.757149 
	C248.350983,119.903450 245.239441,118.690750 237.239777,121.997955 
	C232.479202,124.627548 227.718613,127.257141 222.244934,130.002243 
	C217.812988,132.633423 213.381042,135.264618 208.233307,138.004089 
	C204.471909,140.300995 200.710526,142.597900 196.230240,145.004395 
M1764.964478,325.080597 
	C1764.311523,316.266998 1763.871704,307.430817 1762.939087,298.646912 
	C1762.177368,291.472107 1755.248901,285.796509 1748.295288,286.057159 
	C1740.234131,286.359344 1734.568359,291.824615 1733.265259,300.400909 
	C1732.565552,307.266968 1731.865845,314.133026 1731.033325,321.871368 
	C1730.410767,327.914154 1729.788330,333.956909 1729.033569,340.871124 
	C1728.317505,348.566864 1727.601318,356.262604 1726.223022,364.467438 
	C1725.537354,373.312347 1724.851685,382.157288 1723.763306,391.738556 
	C1722.897461,398.492706 1722.031616,405.246826 1721.034546,412.883392 
	C1720.649170,418.244446 1720.263672,423.605469 1719.222168,429.476074 
	C1718.870239,434.985016 1718.518311,440.493927 1717.761108,446.742401 
	C1716.692993,456.380432 1715.625000,466.018433 1714.620605,475.081696 
	C1726.416260,474.640808 1737.208618,474.237427 1748.869019,473.963593 
	C1756.472778,475.096588 1764.076416,476.229614 1771.834106,477.385529 
	C1771.834106,475.916931 1771.834106,474.456879 1771.964600,472.072357 
	C1771.587891,466.047211 1771.211060,460.022064 1770.964722,453.070801 
	C1770.587891,445.379242 1770.211060,437.687714 1769.963989,429.075623 
	C1769.587402,419.049622 1769.210815,409.023621 1768.958984,398.150543 
	C1768.250732,389.099731 1767.542603,380.048889 1766.965454,370.071594 
	C1766.588379,363.047546 1766.211304,356.023499 1765.965576,348.073853 
	C1765.588379,340.715027 1765.211304,333.356232 1764.964478,325.080597 
M95.085686,148.987961 
	C90.045876,150.284637 85.006065,151.581329 79.190315,152.976807 
	C71.690193,156.033493 64.190071,159.090195 55.908478,162.188904 
	C48.977402,165.920273 41.170689,168.620392 35.302334,173.603333 
	C24.004868,183.196243 24.333208,197.117233 26.841063,209.873291 
	C28.969866,220.701324 34.436432,230.873154 38.892338,242.557938 
	C46.528976,235.943451 52.814766,230.499008 59.800377,224.981964 
	C66.866913,220.599533 73.933456,216.217087 81.698753,211.721268 
	C87.132523,209.425659 92.566284,207.130051 98.727074,204.700119 
	C104.495560,202.841125 110.264046,200.982117 116.879860,199.024780 
	C123.920792,197.961319 130.961716,196.897858 138.849594,195.958389 
	C146.233719,195.583405 153.617859,195.208405 161.931137,194.963989 
	C169.731354,194.976852 177.540955,195.209122 185.326431,194.876831 
	C187.859207,194.768738 191.783615,193.788437 192.470779,192.129684 
	C193.393372,189.902573 192.220856,186.456207 191.164322,183.850967 
	C189.891953,180.713547 187.271103,178.095505 186.151947,174.928284 
	C181.763336,162.508423 173.498856,154.242920 160.218628,149.998566 
	C152.479980,148.720947 144.741333,147.443344 136.073425,146.031876 
	C129.049606,146.076599 122.025795,146.121307 114.143257,146.033661 
	C108.062996,147.003479 101.982742,147.973297 95.085686,148.987961 
M446.929291,640.965149 
	C453.953369,640.921326 460.977417,640.877502 468.930267,640.965271 
	C478.954254,640.921265 488.978241,640.877258 499.930939,640.964661 
	C512.287659,640.921082 524.644348,640.877502 537.930237,640.965271 
	C549.181152,640.965271 560.432129,640.965271 571.680542,640.965271 
	C571.680542,561.002197 571.680542,481.686035 571.680542,402.166077 
	C559.908142,402.166077 548.454590,402.166077 536.072327,402.031769 
	C523.715637,402.076782 511.358917,402.121796 498.072906,402.032562 
	C484.716034,402.077301 471.359131,402.122070 457.072876,402.032928 
	C444.382507,402.077454 431.692169,402.121979 418.072418,402.033020 
	C407.715088,402.077454 397.357758,402.121887 386.071594,402.033478 
	C375.498535,402.033478 364.925446,402.033478 354.338562,402.033478 
	C354.338562,429.993256 354.338562,457.321503 354.338562,484.833679 
	C365.449554,484.833679 376.224976,484.833679 387.929688,484.964813 
	C398.287048,484.921051 408.644409,484.877289 419.930542,484.964508 
	C432.621124,484.920746 445.311676,484.876953 458.930969,484.964325 
	C468.835388,484.964325 478.739777,484.964325 488.671326,484.964325 
	C488.671326,509.649689 488.671326,533.644531 488.671326,558.166321 
	C481.565491,558.166321 474.783508,558.166321 467.072296,558.032959 
	C460.048248,558.077454 453.024231,558.121948 445.071442,558.033325 
	C435.714447,558.077576 426.357422,558.121826 416.071564,558.033325 
	C404.047943,558.077820 392.024353,558.122314 379.071899,558.033936 
	C363.048187,558.077942 347.024475,558.122009 330.071808,558.033875 
	C313.048370,558.078064 296.024933,558.122253 278.072021,558.034119 
	C265.047943,558.078186 252.023849,558.122192 238.073044,558.035034 
	C233.152573,558.035034 228.232101,558.035034 223.323486,558.035034 
	C223.323486,493.323578 223.323486,429.354156 223.323486,364.833893 
	C232.094971,364.833893 240.547546,364.833893 249.929565,364.964844 
	C265.286896,364.921143 280.644196,364.877472 296.930389,364.964386 
	C310.620880,364.920715 324.311340,364.877045 338.930634,364.964111 
	C353.620667,364.920868 368.310699,364.877625 383.930023,364.965363 
	C397.620270,364.921753 411.310516,364.878143 425.930054,364.965485 
	C439.287018,364.921600 452.643951,364.877686 466.930115,364.965088 
	C479.953705,364.921295 492.977325,364.877502 506.930115,364.965118 
	C516.953674,364.921265 526.977295,364.877411 537.929993,364.965240 
	C547.506775,364.965240 557.083557,364.965240 566.667969,364.965240 
	C566.667969,336.675110 566.667969,309.010193 566.667969,281.166412 
	C556.558594,281.166412 546.779724,281.166412 536.072144,281.032166 
	C526.048401,281.076874 516.024658,281.121582 505.072174,281.032257 
	C492.048431,281.076904 479.024658,281.121552 465.072052,281.032745 
	C451.714966,281.076996 438.357849,281.121246 424.071899,281.032806 
	C410.381500,281.077087 396.691132,281.121368 382.071808,281.033295 
	C367.381805,281.077759 352.691833,281.122192 337.072449,281.033752 
	C325.105652,281.022736 313.138519,280.965057 301.172455,281.052795 
	C299.446228,281.065430 297.725128,281.777374 295.310303,282.271179 
	C279.874298,290.569580 264.438293,298.867981 248.323380,307.273773 
	C246.790771,308.205963 245.292740,309.201477 243.719955,310.060089 
	C232.810638,316.015656 221.885788,321.942810 210.251678,328.000946 
	C198.502563,334.389282 186.753448,340.777588 174.314377,347.270172 
	C164.472275,352.532440 154.701950,357.936249 144.750031,362.981934 
	C141.155685,364.804260 139.903641,367.051178 139.909134,371.109955 
	C140.028473,459.179840 140.000000,547.249878 140.000000,635.319946 
	C140.000000,637.086914 140.000000,638.853882 140.000000,640.833374 
	C152.428986,640.833374 164.214981,640.833374 176.929886,640.964050 
	C188.286484,640.920593 199.643066,640.877136 211.929077,640.965088 
	C220.952621,640.921326 229.976181,640.877502 239.929169,640.965149 
	C252.953278,640.921326 265.977386,640.877441 279.930328,640.964233 
	C296.953796,640.920776 313.977295,640.877380 331.930084,640.964661 
	C347.953644,640.920837 363.977173,640.877014 380.929993,640.964478 
	C392.953461,640.921021 404.976959,640.877502 417.929718,640.965271 
	C427.286530,640.921326 436.643372,640.877441 446.929291,640.965149 
M203.686722,317.729187 
	C210.272202,314.097778 216.901031,310.542297 223.430664,306.813110 
	C229.673920,303.247437 235.813995,299.501129 242.686813,295.729767 
	C256.123627,288.098114 269.560455,280.466492 283.685272,272.732178 
	C295.805695,265.857758 307.926086,258.983337 320.682312,251.798584 
	C336.465973,242.906113 352.249603,234.013657 368.670349,224.808197 
	C386.127075,214.910309 403.583771,205.012421 421.757690,194.996506 
	C445.864227,181.472382 469.970764,167.948257 494.463593,154.207413 
	C484.626953,136.821701 474.589569,120.077065 465.591339,102.791473 
	C460.463348,92.940567 445.697266,84.222946 433.558197,89.849434 
	C428.253265,92.308296 423.148285,95.198524 417.314880,98.199463 
	C399.859802,108.098373 382.404694,117.997284 364.235596,128.004059 
	C348.824493,136.724579 333.413361,145.445084 317.316925,154.262924 
	C314.463470,155.861893 311.587738,157.422546 308.760620,159.066788 
	C299.152832,164.654724 289.562256,170.272186 279.244049,175.998795 
	C272.206177,179.812439 265.118073,183.536957 258.145569,187.466599 
	C252.030273,190.913101 246.044678,194.589722 239.313934,198.266510 
	C229.743927,203.556091 220.139999,208.785660 210.621078,214.165619 
	C206.965073,216.231918 203.502838,218.641052 199.231400,221.003433 
	C192.110321,224.888962 184.932281,228.674576 177.886017,232.691345 
	C172.142975,235.965179 166.557556,239.515533 160.181351,243.018188 
	C152.600632,247.092560 144.963837,251.066833 137.456573,255.272354 
	C131.226685,258.762299 125.149368,262.524597 118.316528,266.268646 
	C101.010010,275.935303 83.576797,285.383820 66.437096,295.337708 
	C52.751648,303.285553 48.567043,317.538422 55.961555,331.623901 
	C62.510853,344.099365 69.463539,356.364807 76.341301,368.665283 
	C79.263313,373.891144 82.448425,378.969879 85.598824,384.257904 
	C98.039833,377.038422 110.045082,370.071808 122.766739,362.994690 
	C136.861176,355.031525 150.955612,347.068359 165.762909,338.993744 
	C178.175217,331.940430 190.587509,324.887085 203.686722,317.729187 
M1364.067383,477.672668 
	C1364.027344,478.171692 1364.098755,478.712128 1363.931030,479.163727 
	C1355.645752,501.460175 1347.317627,523.740662 1339.048218,546.042908 
	C1335.873291,554.606018 1332.827148,563.216980 1329.528320,572.342957 
	C1328.870361,571.469604 1328.451782,571.115356 1328.288086,570.667847 
	C1318.510742,543.924866 1308.725586,517.184631 1299.003906,490.421356 
	C1289.613525,464.569885 1280.325073,438.681305 1270.832153,412.867737 
	C1270.374146,411.622437 1268.388062,410.141449 1267.094727,410.123505 
	C1252.941528,409.927155 1238.784668,410.000458 1224.605591,410.000458 
	C1204.491089,463.818787 1184.443237,517.458862 1163.934692,572.331604 
	C1153.293823,542.720886 1143.102417,514.459717 1132.983643,486.172638 
	C1124.264038,461.796814 1115.654785,437.381470 1106.874390,413.027740 
	C1106.433472,411.804901 1104.838379,410.144379 1103.764038,410.131927 
	C1087.687500,409.945984 1071.608276,410.003296 1055.139282,410.003296 
	C1058.381714,418.998840 1061.396240,427.547760 1064.539307,436.049042 
	C1078.285645,473.228546 1092.134521,510.370270 1105.817993,547.572876 
	C1115.982300,575.207397 1125.973511,602.905640 1135.958618,630.605530 
	C1136.766846,632.847595 1137.545532,634.101685 1140.314087,634.072815 
	C1155.145752,633.918091 1169.979858,633.965820 1184.812866,634.032898 
	C1187.303101,634.044189 1188.301392,633.312561 1189.251953,630.709595 
	C1194.912720,615.208557 1201.004883,599.865540 1206.895264,584.447693 
	C1215.961548,560.716309 1224.975098,536.964783 1234.024414,513.226807 
	C1238.081909,502.583374 1242.171631,491.952118 1246.382690,480.960571 
	C1254.708618,502.979614 1262.957275,524.419373 1270.926025,545.962769 
	C1281.421021,574.335876 1291.664307,602.802185 1302.172241,631.170410 
	C1302.631226,632.409180 1304.641357,633.862000 1305.945801,633.878479 
	C1320.943237,634.068542 1335.945068,634.077209 1350.942017,633.869873 
	C1352.319092,633.850891 1354.427856,632.296021 1354.922363,630.976501 
	C1364.462769,605.524048 1373.778442,579.987610 1383.209961,554.494202 
	C1396.570801,518.379944 1409.983765,482.284973 1423.383911,446.185181 
	C1427.831421,434.203339 1432.307617,422.232117 1436.866089,410.000000 
	C1422.138916,410.000000 1407.804443,410.199158 1393.482422,409.861511 
	C1389.852417,409.775940 1388.466675,411.332458 1387.462646,414.076233 
	C1379.789673,435.043945 1372.150024,456.023865 1364.067383,477.672668 
M1514.026367,455.474457 
	C1526.020752,451.879852 1538.343384,451.544922 1550.700439,452.036407 
	C1566.391113,452.660522 1580.753052,456.862305 1590.510010,470.164124 
	C1597.346924,479.485138 1600.135132,490.212830 1598.650635,502.000000 
	C1583.074097,502.000000 1567.905029,501.609741 1552.765625,502.110382 
	C1537.810791,502.604889 1522.819214,503.430664 1507.966553,505.163574 
	C1493.736694,506.823853 1480.598267,512.351379 1469.337646,521.286926 
	C1446.605347,539.325623 1443.339478,574.009033 1454.551880,596.657898 
	C1467.503418,622.819580 1491.396484,633.245911 1518.995117,635.776855 
	C1530.123657,636.797424 1541.563232,636.080627 1552.714111,634.835876 
	C1572.316284,632.647705 1589.119385,624.449463 1602.165405,607.589172 
	C1602.165405,617.047668 1602.165405,625.417297 1602.165405,633.643372 
	C1619.048340,633.643372 1635.439575,633.643372 1652.000000,633.643372 
	C1652.000000,631.465149 1652.000000,629.642883 1652.000000,627.820679 
	C1652.000000,584.839050 1652.169922,541.856140 1651.863403,498.876709 
	C1651.798462,489.769775 1650.632690,480.546936 1648.838501,471.605347 
	C1646.222900,458.570099 1640.824585,446.570374 1631.918091,436.448792 
	C1613.969238,416.051270 1589.971436,408.911530 1564.191162,407.225464 
	C1546.146606,406.045319 1528.029175,406.721100 1510.107422,410.850159 
	C1490.146851,415.448975 1471.469116,422.468170 1454.800049,434.957886 
	C1461.869263,448.089661 1468.859375,461.074615 1475.798340,473.964386 
	C1487.602173,465.559723 1499.602783,458.974396 1514.026367,455.474457 
M838.733154,320.000000 
	C834.219727,320.667572 829.665649,321.134369 825.200562,322.040314 
	C811.885986,324.741791 799.775940,330.038544 789.910217,339.623657 
	C775.175720,353.938934 769.336487,372.084106 768.062134,392.007294 
	C767.663147,398.244110 768.000000,404.527954 768.000000,411.247620 
	C755.279785,411.247620 743.212280,411.247620 731.220459,411.247620 
	C731.220459,425.669952 731.220459,439.612305 731.220459,454.030640 
	C743.497925,454.030640 755.564758,454.030640 768.090271,454.030640 
	C768.090271,514.229675 768.090271,573.951782 768.090271,633.686584 
	C785.955078,633.686584 803.348145,633.686584 821.207520,633.686584 
	C821.207520,573.652405 821.207520,513.930298 821.207520,453.734253 
	C841.404724,453.734253 861.135010,453.734253 880.771240,453.734253 
	C880.771240,439.313232 880.771240,425.370728 880.771240,410.954224 
	C860.485413,410.954224 840.421631,410.954224 820.000000,410.954224 
	C820.000000,404.519440 819.608887,398.524292 820.072327,392.595978 
	C821.534485,373.892792 831.066284,364.281342 849.673523,363.053894 
	C860.908691,362.312775 870.998047,366.354279 880.829346,372.007446 
	C885.880249,358.594879 890.820740,345.475403 896.015259,331.681458 
	C891.254150,329.401337 886.725525,326.890594 881.948792,325.009949 
	C868.332642,319.649017 853.996399,319.827179 838.733154,320.000000 
M975.000000,485.500000 
	C975.000000,475.076385 975.000000,464.652771 975.000000,453.770844 
	C995.369507,453.770844 1015.096069,453.770844 1034.619873,453.770844 
	C1034.619873,439.237396 1034.619873,425.178040 1034.619873,410.834106 
	C1014.635254,410.834106 995.029541,410.834106 974.955383,410.834106 
	C974.955383,393.818512 974.955383,377.090698 974.955383,360.286957 
	C957.091675,360.286957 939.702332,360.286957 921.842224,360.286957 
	C921.842224,377.296600 921.842224,394.024628 921.842224,411.216919 
	C909.310059,411.216919 897.245117,411.216919 885.375854,411.216919 
	C885.375854,425.753906 885.375854,439.813110 885.375854,454.161072 
	C897.692383,454.161072 909.634705,454.161072 922.000000,454.161072 
	C922.000000,456.242157 922.000000,458.031372 922.000000,459.820618 
	C922.000000,492.638947 921.875244,525.458069 922.090881,558.275024 
	C922.142456,566.123901 922.817810,574.048462 924.079712,581.795898 
	C929.798828,616.908875 955.739929,633.198242 986.965881,635.819458 
	C996.787903,636.643982 1006.829285,635.777588 1016.697815,634.884827 
	C1028.211060,633.843384 1038.563965,629.050049 1048.207397,622.846680 
	C1049.094116,622.276367 1049.711670,619.956726 1049.298950,618.900940 
	C1044.646362,606.998596 1039.767822,595.184692 1035.056152,583.608276 
	C1029.921143,585.954590 1025.185913,588.765015 1020.068848,590.316162 
	C1010.629089,593.177673 1000.790344,593.560303 991.624817,589.683533 
	C981.506409,585.403809 975.238403,575.948059 975.083740,562.464294 
	C974.793274,537.145874 975.000000,511.821747 975.000000,485.500000 
M641.000000,595.500000 
	C641.000000,608.252991 641.000000,621.005920 641.000000,633.658325 
	C658.693054,633.658325 675.746460,633.658325 692.681396,633.658325 
	C692.681396,558.961060 692.681396,484.605896 692.681396,410.341492 
	C675.307251,410.341492 658.253906,410.341492 641.000000,410.341492 
	C641.000000,471.955139 641.000000,533.227600 641.000000,595.500000 
M700.014343,333.620850 
	C699.132080,331.041626 698.690125,328.191559 697.297058,325.926514 
	C687.188904,309.491943 667.073303,306.561890 651.586304,313.339783 
	C640.962341,317.989319 634.484314,326.888824 633.117554,338.585022 
	C631.891235,349.079132 635.399109,358.637604 643.249939,365.447937 
	C656.287598,376.757599 675.464172,377.169861 689.197876,366.868591 
	C698.271118,360.062988 703.505310,347.116791 700.014343,333.620850 
z"/>
<path fill="#514E4C" opacity="1.000000" stroke="none" 
	d="
M2045.000000,535.531372 
	C2044.125488,539.232483 2041.653931,539.037903 2039.017822,539.035645 
	C1984.703125,538.988220 1930.388428,539.000000 1876.073730,539.000000 
	C1874.255371,539.000000 1872.437012,539.000000 1869.416748,539.000000 
	C1870.796509,543.546448 1871.599731,547.763672 1873.311035,551.572815 
	C1883.287354,573.779480 1900.865356,585.879028 1924.554077,590.072266 
	C1947.198853,594.080627 1968.323242,590.725159 1987.642578,577.997314 
	C1992.524902,574.780701 1996.964600,570.892151 2001.892456,567.092834 
	C2010.647827,576.944397 2019.553955,586.879456 2028.339844,596.919739 
	C2030.233887,599.084229 2030.539551,601.129761 2027.960327,603.674500 
	C2011.450806,619.964111 1991.791626,630.517090 1968.984009,633.723572 
	C1954.008911,635.828918 1938.569824,636.732788 1923.512329,635.682861 
	C1898.244385,633.920959 1875.149414,625.287781 1855.242798,608.855469 
	C1834.704346,591.901489 1822.330933,570.336548 1818.151001,544.250732 
	C1816.544067,534.222046 1815.646240,523.860352 1816.201782,513.747986 
	C1817.570312,488.835510 1825.367065,466.195923 1841.675659,446.642822 
	C1855.164917,430.469849 1871.980957,419.752655 1891.562988,412.781403 
	C1908.984985,406.579224 1927.093994,405.952728 1945.136108,407.189056 
	C1967.923462,408.750610 1988.406006,417.450653 2006.071411,431.828613 
	C2015.497437,439.500610 2023.201904,448.963867 2029.374512,459.671967 
	C2038.330688,475.208557 2043.186279,491.821136 2044.613892,509.819427 
	C2045.000000,518.354248 2045.000000,526.708496 2045.000000,535.531372 
M1878.974976,476.536804 
	C1873.469238,484.380402 1870.750732,493.265137 1868.992676,502.800385 
	C1910.688110,502.800385 1952.136963,502.800385 1993.663574,502.800385 
	C1993.787598,502.220367 1994.038940,501.737274 1993.959351,501.316895 
	C1990.799072,484.642120 1983.098267,470.607147 1968.824951,461.057068 
	C1952.023438,449.815460 1933.470093,447.673096 1914.053101,452.484985 
	C1899.679932,456.046906 1887.776367,463.414642 1878.974976,476.536804 
z"/>
<path fill="#8358FF" opacity="1.000000" stroke="none" 
	d="
M361.040436,54.115639 
	C352.581116,59.990185 344.121826,65.864731 335.331238,71.329643 
	C334.666656,52.017834 334.369781,33.114864 333.960083,14.214339 
	C333.899780,11.432570 333.304382,8.662400 332.956573,5.886861 
	C335.215088,4.469749 337.473572,3.052640 339.866028,1.317765 
	C344.689240,1.000000 349.378510,1.000000 354.533875,1.000003 
	C356.431976,1.670496 357.863922,2.340985 359.648315,3.545473 
	C360.347290,20.758192 360.693848,37.436913 361.040436,54.115639 
z"/>
<path fill="#6977FF" opacity="1.000000" stroke="none" 
	d="
M185.040817,785.114990 
	C168.734894,789.075134 152.355652,792.759399 136.142365,797.068115 
	C117.504234,802.021118 98.866806,807.067688 80.496834,812.914795 
	C59.925762,819.462585 39.631523,826.887268 19.269150,834.078552 
	C14.181844,835.875122 9.295376,838.240479 4.158286,840.672180 
	C3.000000,841.000000 2.000000,841.000000 0.999999,840.500000 
	C9.686034,836.154663 18.336811,832.227173 27.064678,828.479248 
	C54.927303,816.514709 83.374748,806.162048 112.584770,797.986450 
	C135.098633,791.685120 157.666046,785.575012 180.215775,779.402161 
	C181.156418,779.144592 182.159073,779.113403 183.699768,779.299683 
	C184.524750,781.453430 184.782791,783.284180 185.040817,785.114990 
z"/>
<path fill="#514E4C" opacity="1.000000" stroke="none" 
	d="
M1364.283691,477.336334 
	C1372.150024,456.023865 1379.789673,435.043945 1387.462646,414.076233 
	C1388.466675,411.332458 1389.852417,409.775940 1393.482422,409.861511 
	C1407.804443,410.199158 1422.138916,410.000000 1436.866089,410.000000 
	C1432.307617,422.232117 1427.831421,434.203339 1423.383911,446.185181 
	C1409.983765,482.284973 1396.570801,518.379944 1383.209961,554.494202 
	C1373.778442,579.987610 1364.462769,605.524048 1354.922363,630.976501 
	C1354.427856,632.296021 1352.319092,633.850891 1350.942017,633.869873 
	C1335.945068,634.077209 1320.943237,634.068542 1305.945801,633.878479 
	C1304.641357,633.862000 1302.631226,632.409180 1302.172241,631.170410 
	C1291.664307,602.802185 1281.421021,574.335876 1270.926025,545.962769 
	C1262.957275,524.419373 1254.708618,502.979614 1246.382690,480.960571 
	C1242.171631,491.952118 1238.081909,502.583374 1234.024414,513.226807 
	C1224.975098,536.964783 1215.961548,560.716309 1206.895264,584.447693 
	C1201.004883,599.865540 1194.912720,615.208557 1189.251953,630.709595 
	C1188.301392,633.312561 1187.303101,634.044189 1184.812866,634.032898 
	C1169.979858,633.965820 1155.145752,633.918091 1140.314087,634.072815 
	C1137.545532,634.101685 1136.766846,632.847595 1135.958618,630.605530 
	C1125.973511,602.905640 1115.982300,575.207397 1105.817993,547.572876 
	C1092.134521,510.370270 1078.285645,473.228546 1064.539307,436.049042 
	C1061.396240,427.547760 1058.381714,418.998840 1055.139282,410.003296 
	C1071.608276,410.003296 1087.687500,409.945984 1103.764038,410.131927 
	C1104.838379,410.144379 1106.433472,411.804901 1106.874390,413.027740 
	C1115.654785,437.381470 1124.264038,461.796814 1132.983643,486.172638 
	C1143.102417,514.459717 1153.293823,542.720886 1163.934692,572.331604 
	C1184.443237,517.458862 1204.491089,463.818787 1224.605591,410.000458 
	C1238.784668,410.000458 1252.941528,409.927155 1267.094727,410.123505 
	C1268.388062,410.141449 1270.374146,411.622437 1270.832153,412.867737 
	C1280.325073,438.681305 1289.613525,464.569885 1299.003906,490.421356 
	C1308.725586,517.184631 1318.510742,543.924866 1328.288086,570.667847 
	C1328.451782,571.115356 1328.870361,571.469604 1329.528320,572.342957 
	C1332.827148,563.216980 1335.873291,554.606018 1339.048218,546.042908 
	C1347.317627,523.740662 1355.645752,501.460175 1363.931030,479.163727 
	C1364.098755,478.712128 1364.027344,478.171692 1364.283691,477.336334 
z"/>
<path fill="#514E4C" opacity="1.000000" stroke="none" 
	d="
M1513.669312,455.700439 
	C1499.602783,458.974396 1487.602173,465.559723 1475.798340,473.964386 
	C1468.859375,461.074615 1461.869263,448.089661 1454.800049,434.957886 
	C1471.469116,422.468170 1490.146851,415.448975 1510.107422,410.850159 
	C1528.029175,406.721100 1546.146606,406.045319 1564.191162,407.225464 
	C1589.971436,408.911530 1613.969238,416.051270 1631.918091,436.448792 
	C1640.824585,446.570374 1646.222900,458.570099 1648.838501,471.605347 
	C1650.632690,480.546936 1651.798462,489.769775 1651.863403,498.876709 
	C1652.169922,541.856140 1652.000000,584.839050 1652.000000,627.820679 
	C1652.000000,629.642883 1652.000000,631.465149 1652.000000,633.643372 
	C1635.439575,633.643372 1619.048340,633.643372 1602.165405,633.643372 
	C1602.165405,625.417297 1602.165405,617.047668 1602.165405,607.589172 
	C1589.119385,624.449463 1572.316284,632.647705 1552.714111,634.835876 
	C1541.563232,636.080627 1530.123657,636.797424 1518.995117,635.776855 
	C1491.396484,633.245911 1467.503418,622.819580 1454.551880,596.657898 
	C1443.339478,574.009033 1446.605347,539.325623 1469.337646,521.286926 
	C1480.598267,512.351379 1493.736694,506.823853 1507.966553,505.163574 
	C1522.819214,503.430664 1537.810791,502.604889 1552.765625,502.110382 
	C1567.905029,501.609741 1583.074097,502.000000 1598.650635,502.000000 
	C1600.135132,490.212830 1597.346924,479.485138 1590.510010,470.164124 
	C1580.753052,456.862305 1566.391113,452.660522 1550.700439,452.036407 
	C1538.343384,451.544922 1526.020752,451.879852 1513.669312,455.700439 
M1599.000000,545.565430 
	C1599.000000,543.135437 1599.000000,540.705383 1599.000000,539.006165 
	C1575.203979,539.006165 1552.003906,538.611206 1528.830566,539.224182 
	C1520.912476,539.433655 1512.904541,542.382263 1507.669678,548.983032 
	C1494.395874,565.720215 1501.058716,587.403870 1521.592651,593.919861 
	C1541.349609,600.189270 1560.763306,598.627197 1578.499023,587.628784 
	C1591.721436,579.429199 1601.086914,568.232239 1599.023560,551.035522 
	C1598.846436,549.559448 1599.000000,548.043762 1599.000000,545.565430 
z"/>
<path fill="#514E4C" opacity="1.000000" stroke="none" 
	d="
M839.210938,320.000000 
	C853.996399,319.827179 868.332642,319.649017 881.948792,325.009949 
	C886.725525,326.890594 891.254150,329.401337 896.015259,331.681458 
	C890.820740,345.475403 885.880249,358.594879 880.829346,372.007446 
	C870.998047,366.354279 860.908691,362.312775 849.673523,363.053894 
	C831.066284,364.281342 821.534485,373.892792 820.072327,392.595978 
	C819.608887,398.524292 820.000000,404.519440 820.000000,410.954224 
	C840.421631,410.954224 860.485413,410.954224 880.771240,410.954224 
	C880.771240,425.370728 880.771240,439.313232 880.771240,453.734253 
	C861.135010,453.734253 841.404724,453.734253 821.207520,453.734253 
	C821.207520,513.930298 821.207520,573.652405 821.207520,633.686584 
	C803.348145,633.686584 785.955078,633.686584 768.090271,633.686584 
	C768.090271,573.951782 768.090271,514.229675 768.090271,454.030640 
	C755.564758,454.030640 743.497925,454.030640 731.220459,454.030640 
	C731.220459,439.612305 731.220459,425.669952 731.220459,411.247620 
	C743.212280,411.247620 755.279785,411.247620 768.000000,411.247620 
	C768.000000,404.527954 767.663147,398.244110 768.062134,392.007294 
	C769.336487,372.084106 775.175720,353.938934 789.910217,339.623657 
	C799.775940,330.038544 811.885986,324.741791 825.200562,322.040314 
	C829.665649,321.134369 834.219727,320.667572 839.210938,320.000000 
z"/>
<path fill="#514E4C" opacity="1.000000" stroke="none" 
	d="
M975.000000,486.000000 
	C975.000000,511.821747 974.793274,537.145874 975.083740,562.464294 
	C975.238403,575.948059 981.506409,585.403809 991.624817,589.683533 
	C1000.790344,593.560303 1010.629089,593.177673 1020.068848,590.316162 
	C1025.185913,588.765015 1029.921143,585.954590 1035.056152,583.608276 
	C1039.767822,595.184692 1044.646362,606.998596 1049.298950,618.900940 
	C1049.711670,619.956726 1049.094116,622.276367 1048.207397,622.846680 
	C1038.563965,629.050049 1028.211060,633.843384 1016.697815,634.884827 
	C1006.829285,635.777588 996.787903,636.643982 986.965881,635.819458 
	C955.739929,633.198242 929.798828,616.908875 924.079712,581.795898 
	C922.817810,574.048462 922.142456,566.123901 922.090881,558.275024 
	C921.875244,525.458069 922.000000,492.638947 922.000000,459.820618 
	C922.000000,458.031372 922.000000,456.242157 922.000000,454.161072 
	C909.634705,454.161072 897.692383,454.161072 885.375854,454.161072 
	C885.375854,439.813110 885.375854,425.753906 885.375854,411.216919 
	C897.245117,411.216919 909.310059,411.216919 921.842224,411.216919 
	C921.842224,394.024628 921.842224,377.296600 921.842224,360.286957 
	C939.702332,360.286957 957.091675,360.286957 974.955383,360.286957 
	C974.955383,377.090698 974.955383,393.818512 974.955383,410.834106 
	C995.029541,410.834106 1014.635254,410.834106 1034.619873,410.834106 
	C1034.619873,425.178040 1034.619873,439.237396 1034.619873,453.770844 
	C1015.096069,453.770844 995.369507,453.770844 975.000000,453.770844 
	C975.000000,464.652771 975.000000,475.076385 975.000000,486.000000 
z"/>
<path fill="#514E4C" opacity="1.000000" stroke="none" 
	d="
M641.000000,595.000000 
	C641.000000,533.227600 641.000000,471.955139 641.000000,410.341492 
	C658.253906,410.341492 675.307251,410.341492 692.681396,410.341492 
	C692.681396,484.605896 692.681396,558.961060 692.681396,633.658325 
	C675.746460,633.658325 658.693054,633.658325 641.000000,633.658325 
	C641.000000,621.005920 641.000000,608.252991 641.000000,595.000000 
z"/>
<path fill="#6C73FF" opacity="1.000000" stroke="none" 
	d="
M175.004333,347.165894 
	C186.753448,340.777588 198.502563,334.389282 210.619415,328.417664 
	C210.991333,432.834137 210.995499,536.833923 210.999664,640.833679 
	C199.643066,640.877136 188.286484,640.920593 176.465088,640.442017 
	C176.000183,544.951843 176.008041,449.983765 175.958267,355.015717 
	C175.956894,352.398926 175.336227,349.782501 175.004333,347.165894 
z"/>
<path fill="#6977FF" opacity="1.000000" stroke="none" 
	d="
M174.659363,347.218018 
	C175.336227,349.782501 175.956894,352.398926 175.958267,355.015717 
	C176.008041,449.983765 176.000183,544.951843 176.000641,640.376648 
	C164.214981,640.833374 152.428986,640.833374 140.000000,640.833374 
	C140.000000,638.853882 140.000000,637.086914 140.000000,635.319946 
	C140.000000,547.249878 140.028473,459.179840 139.909134,371.109955 
	C139.903641,367.051178 141.155685,364.804260 144.750031,362.981934 
	C154.701950,357.936249 164.472275,352.532440 174.659363,347.218018 
z"/>
<path fill="#8D4CFF" opacity="1.000000" stroke="none" 
	d="
M537.001038,640.833923 
	C524.644348,640.877502 512.287659,640.921082 499.465851,640.442017 
	C499.001251,560.668579 499.001740,481.417694 499.002228,402.166840 
	C511.358917,402.121796 523.715637,402.076782 536.536133,402.555908 
	C537.000305,482.331329 537.000671,561.582642 537.001038,640.833923 
z"/>
<path fill="#9048FF" opacity="1.000000" stroke="none" 
	d="
M537.465637,640.899597 
	C537.000671,561.582642 537.000305,482.331329 537.000488,402.623047 
	C548.454590,402.166077 559.908142,402.166077 571.680542,402.166077 
	C571.680542,481.686035 571.680542,561.002197 571.680542,640.965271 
	C560.432129,640.965271 549.181152,640.965271 537.465637,640.899597 
z"/>
<path fill="#8951FF" opacity="1.000000" stroke="none" 
	d="
M498.537567,402.099701 
	C499.001740,481.417694 499.001251,560.668579 499.001495,640.376343 
	C488.978241,640.877258 478.954254,640.921265 468.465332,640.442566 
	C468.000763,612.668701 468.001129,585.417480 468.001495,558.166321 
	C474.783508,558.166321 481.565491,558.166321 488.671326,558.166321 
	C488.671326,533.644531 488.671326,509.649689 488.671326,484.964325 
	C478.739777,484.964325 468.835388,484.964325 458.465881,484.441895 
	C458.001282,456.668610 458.001770,429.417694 458.002258,402.166809 
	C471.359131,402.122070 484.716034,402.077301 498.537567,402.099701 
z"/>
<path fill="#706FFF" opacity="1.000000" stroke="none" 
	d="
M211.464371,640.899414 
	C210.995499,536.833923 210.991333,432.834137 210.976532,328.356689 
	C221.885788,321.942810 232.810638,316.015656 243.719955,310.060089 
	C245.292740,309.201477 246.790771,308.205963 248.662064,307.677002 
	C249.000549,326.998138 249.000336,345.916016 249.000122,364.833893 
	C240.547546,364.833893 232.094971,364.833893 223.323486,364.833893 
	C223.323486,429.354156 223.323486,493.323578 223.323486,558.035034 
	C228.232101,558.035034 233.152573,558.035034 238.536530,558.557373 
	C238.999908,586.331116 238.999817,613.582397 238.999725,640.833740 
	C229.976181,640.877502 220.952621,640.921326 211.464371,640.899414 
z"/>
<path fill="#6B74FF" opacity="1.000000" stroke="none" 
	d="
M122.050331,363.105164 
	C110.045082,370.071808 98.039833,377.038422 85.598824,384.257904 
	C82.448425,378.969879 79.263313,373.891144 76.341301,368.665283 
	C69.463539,356.364807 62.510853,344.099365 55.961555,331.623901 
	C48.567043,317.538422 52.751648,303.285553 66.437096,295.337708 
	C83.576797,285.383820 101.010010,275.935303 118.721359,266.620178 
	C119.417458,272.236725 119.886024,277.498932 119.969849,282.767242 
	C120.370583,307.951202 120.649025,333.137054 121.042747,358.321136 
	C121.067757,359.920685 121.700371,361.510712 122.050331,363.105164 
z"/>
<path fill="#8852FF" opacity="1.000000" stroke="none" 
	d="
M421.040466,195.114532 
	C403.583771,205.012421 386.127075,214.910309 368.341614,224.498199 
	C367.675232,217.748352 367.146332,211.311829 367.034149,204.868057 
	C366.615295,180.809036 366.351807,156.747345 365.957367,132.687836 
	C365.931061,131.085556 365.299591,129.493179 364.949585,127.896194 
	C382.404694,117.997284 399.859802,108.098373 417.802490,98.437897 
	C418.859955,108.906044 419.697876,119.129311 419.944336,129.366806 
	C420.471832,151.278809 420.693512,173.198166 421.040466,195.114532 
z"/>
<path fill="#8E4BFF" opacity="1.000000" stroke="none" 
	d="
M421.399078,195.055511 
	C420.693512,173.198166 420.471832,151.278809 419.944336,129.366806 
	C419.697876,119.129311 418.859955,108.906044 418.121277,98.284599 
	C423.148285,95.198524 428.253265,92.308296 433.558197,89.849434 
	C445.697266,84.222946 460.463348,92.940567 465.591339,102.791473 
	C474.589569,120.077065 484.626953,136.821701 494.463593,154.207413 
	C469.970764,167.948257 445.864227,181.472382 421.399078,195.055511 
z"/>
<path fill="#8358FF" opacity="1.000000" stroke="none" 
	d="
M364.592590,127.950119 
	C365.299591,129.493179 365.931061,131.085556 365.957367,132.687836 
	C366.351807,156.747345 366.615295,180.809036 367.034149,204.868057 
	C367.146332,211.311829 367.675232,217.748352 368.023071,224.654694 
	C352.249603,234.013657 336.465973,242.906113 320.195984,251.561661 
	C319.473602,250.200699 319.051208,249.080276 319.029205,247.952072 
	C318.656647,228.846252 318.257751,209.740372 318.027557,190.632553 
	C317.881165,178.478561 318.001495,166.321350 318.002228,154.165588 
	C333.413361,145.445084 348.824493,136.724579 364.592590,127.950119 
z"/>
<path fill="#7766FF" opacity="1.000000" stroke="none" 
	d="
M331.000763,640.833923 
	C313.977295,640.877380 296.953796,640.920776 279.465332,640.442139 
	C279.000763,612.668823 279.001129,585.417664 279.001495,558.166382 
	C296.024933,558.122253 313.048370,558.078064 330.535889,558.556763 
	C331.000244,586.331116 331.000519,613.582520 331.000763,640.833923 
z"/>
<path fill="#706EFF" opacity="1.000000" stroke="none" 
	d="
M122.408531,363.049927 
	C121.700371,361.510712 121.067757,359.920685 121.042747,358.321136 
	C120.649025,333.137054 120.370583,307.951202 119.969849,282.767242 
	C119.886024,277.498932 119.417458,272.236725 119.065323,266.568970 
	C125.149368,262.524597 131.226685,258.762299 137.456573,255.272354 
	C144.963837,251.066833 152.600632,247.092560 160.855194,243.268158 
	C161.684952,244.320312 161.966324,245.120575 161.978516,245.924927 
	C162.335480,269.466858 162.674088,293.009094 162.992050,316.551605 
	C163.048126,320.703156 162.737717,324.878021 163.081650,329.001648 
	C163.365128,332.400574 164.366699,335.739594 165.050049,339.105164 
	C150.955612,347.068359 136.861176,355.031525 122.408531,363.049927 
z"/>
<path fill="#7D5FFF" opacity="1.000000" stroke="none" 
	d="
M331.465424,640.899292 
	C331.000519,613.582520 331.000244,586.331116 331.000366,558.622925 
	C347.024475,558.122009 363.048187,558.077942 379.535950,558.557190 
	C380.000244,586.331360 380.000488,613.582275 380.000732,640.833191 
	C363.977173,640.877014 347.953644,640.920837 331.465424,640.899292 
z"/>
<path fill="#7B61FF" opacity="1.000000" stroke="none" 
	d="
M240.001801,198.164703 
	C246.044678,194.589722 252.030273,190.913101 258.145569,187.466599 
	C265.118073,183.536957 272.206177,179.812439 279.615295,176.405121 
	C280.323914,181.098480 280.891113,185.381760 280.960846,189.673126 
	C281.371460,214.943756 281.641510,240.216675 282.039276,265.487549 
	C282.077881,267.941040 282.664825,270.385956 282.997253,272.834839 
	C269.560455,280.466492 256.123627,288.098114 242.343369,295.325012 
	C241.668076,283.188873 241.252167,271.459106 241.022964,259.725708 
	C240.622101,239.206573 240.335999,218.685165 240.001801,198.164703 
z"/>
<path fill="#746AFF" opacity="1.000000" stroke="none" 
	d="
M165.406464,339.049438 
	C164.366699,335.739594 163.365128,332.400574 163.081650,329.001648 
	C162.737717,324.878021 163.048126,320.703156 162.992050,316.551605 
	C162.674088,293.009094 162.335480,269.466858 161.978516,245.924927 
	C161.966324,245.120575 161.684952,244.320312 161.215637,243.230713 
	C166.557556,239.515533 172.142975,235.965179 177.886017,232.691345 
	C184.932281,228.674576 192.110321,224.888962 199.756470,221.330322 
	C200.853210,225.553009 201.827499,229.438431 201.928207,233.346359 
	C202.414444,252.214127 202.717651,271.087219 202.977798,289.959930 
	C203.105850,299.249542 202.999878,308.542389 202.999817,317.833771 
	C190.587509,324.887085 178.175217,331.940430 165.406464,339.049438 
z"/>
<path fill="#7766FF" opacity="1.000000" stroke="none" 
	d="
M203.343262,317.781494 
	C202.999878,308.542389 203.105850,299.249542 202.977798,289.959930 
	C202.717651,271.087219 202.414444,252.214127 201.928207,233.346359 
	C201.827499,229.438431 200.853210,225.553009 200.116913,221.275574 
	C203.502838,218.641052 206.965073,216.231918 210.621078,214.165619 
	C220.139999,208.785660 229.743927,203.556091 239.657867,198.215607 
	C240.335999,218.685165 240.622101,239.206573 241.022964,259.725708 
	C241.252167,271.459106 241.668076,283.188873 241.999680,295.377258 
	C235.813995,299.501129 229.673920,303.247437 223.430664,306.813110 
	C216.901031,310.542297 210.272202,314.097778 203.343262,317.781494 
z"/>
<path fill="#7D5FFF" opacity="1.000000" stroke="none" 
	d="
M338.001831,281.166656 
	C352.691833,281.122192 367.381805,281.077759 382.535889,281.556335 
	C383.000244,309.664398 383.000488,337.249359 383.000732,364.834351 
	C368.310699,364.877625 353.620667,364.920868 338.465607,364.441956 
	C338.000977,336.335388 338.001404,308.751038 338.001831,281.166656 
z"/>
<path fill="#7F5DFF" opacity="1.000000" stroke="none" 
	d="
M283.341248,272.783508 
	C282.664825,270.385956 282.077881,267.941040 282.039276,265.487549 
	C281.641510,240.216675 281.371460,214.943756 280.960846,189.673126 
	C280.891113,185.381760 280.323914,181.098480 279.975830,176.344910 
	C289.562256,170.272186 299.152832,164.654724 308.760620,159.066788 
	C311.587738,157.422546 314.463470,155.861893 317.659576,154.214264 
	C318.001495,166.321350 317.881165,178.478561 318.027557,190.632553 
	C318.257751,209.740372 318.656647,228.846252 319.029205,247.952072 
	C319.051208,249.080276 319.473602,250.200699 319.878082,251.716827 
	C307.926086,258.983337 295.805695,265.857758 283.341248,272.783508 
z"/>
<path fill="#815AFF" opacity="1.000000" stroke="none" 
	d="
M383.465393,364.899841 
	C383.000488,337.249359 383.000244,309.664398 383.000366,281.622528 
	C396.691132,281.121368 410.381500,281.077087 424.535950,281.556061 
	C425.000275,309.664368 425.000519,337.249451 425.000763,364.834503 
	C411.310516,364.878143 397.620270,364.921753 383.465393,364.899841 
z"/>
<path fill="#7964FF" opacity="1.000000" stroke="none" 
	d="
M337.537140,281.100220 
	C338.001404,308.751038 338.000977,336.335388 338.001221,364.376587 
	C324.311340,364.877045 310.620880,364.920715 296.465393,364.442291 
	C296.000824,336.668701 296.001251,309.417236 296.001678,282.165741 
	C297.725128,281.777374 299.446228,281.065430 301.172455,281.052795 
	C313.138519,280.965057 325.105652,281.022736 337.537140,281.100220 
z"/>
<path fill="#514E4C" opacity="1.000000" stroke="none" 
	d="
M700.058472,334.054535 
	C703.505310,347.116791 698.271118,360.062988 689.197876,366.868591 
	C675.464172,377.169861 656.287598,376.757599 643.249939,365.447937 
	C635.399109,358.637604 631.891235,349.079132 633.117554,338.585022 
	C634.484314,326.888824 640.962341,317.989319 651.586304,313.339783 
	C667.073303,306.561890 687.188904,309.491943 697.297058,325.926514 
	C698.690125,328.191559 699.132080,331.041626 700.058472,334.054535 
z"/>
<path fill="#8555FF" opacity="1.000000" stroke="none" 
	d="
M425.465393,364.899994 
	C425.000519,337.249451 425.000275,309.664368 425.000397,281.622406 
	C438.357849,281.121246 451.714966,281.076996 465.536072,281.556396 
	C466.000366,309.664612 466.000641,337.249207 466.000916,364.833801 
	C452.643951,364.877686 439.287018,364.921600 425.465393,364.899994 
z"/>
<path fill="#8950FF" opacity="1.000000" stroke="none" 
	d="
M466.465515,364.899445 
	C466.000641,337.249207 466.000366,309.664612 466.000488,281.623108 
	C479.024658,281.121552 492.048431,281.076904 505.536133,281.556213 
	C506.000366,309.664673 506.000641,337.249176 506.000916,364.833710 
	C492.977325,364.877502 479.953705,364.921295 466.465515,364.899445 
z"/>
<path fill="#726CFF" opacity="1.000000" stroke="none" 
	d="
M278.536743,558.100281 
	C279.001129,585.417664 279.000763,612.668823 279.000916,640.376831 
	C265.977386,640.877441 252.953278,640.921326 239.464447,640.899414 
	C238.999817,613.582397 238.999908,586.331116 238.999878,558.623047 
	C252.023849,558.122192 265.047943,558.078186 278.536743,558.100281 
z"/>
<path fill="#7469FF" opacity="1.000000" stroke="none" 
	d="
M295.656006,282.218445 
	C296.001251,309.417236 296.000824,336.668701 296.000977,364.377014 
	C280.644196,364.877472 265.286896,364.921143 249.464844,364.899353 
	C249.000336,345.916016 249.000549,326.998138 249.001526,307.623352 
	C264.438293,298.867981 279.874298,290.569580 295.656006,282.218445 
z"/>
<path fill="#8556FF" opacity="1.000000" stroke="none" 
	d="
M457.537567,402.099854 
	C458.001770,429.417694 458.001282,456.668610 458.001526,484.376343 
	C445.311676,484.876953 432.621124,484.920746 419.465546,484.442139 
	C419.000977,456.668701 419.001404,429.417603 419.001801,402.166504 
	C431.692169,402.121979 444.382507,402.077454 457.537567,402.099854 
z"/>
<path fill="#815AFF" opacity="1.000000" stroke="none" 
	d="
M380.465363,640.898804 
	C380.000488,613.582275 380.000244,586.331360 380.000366,558.623657 
	C392.024353,558.122314 404.047943,558.077820 416.535767,558.556580 
	C417.000122,586.331238 417.000275,613.582581 417.000427,640.833984 
	C404.976959,640.877502 392.953461,640.921021 380.465363,640.898804 
z"/>
<path fill="#7E5EFF" opacity="1.000000" stroke="none" 
	d="
M387.000397,484.833679 
	C376.224976,484.833679 365.449554,484.833679 354.338562,484.833679 
	C354.338562,457.321503 354.338562,429.993256 354.338562,402.033478 
	C364.925446,402.033478 375.498535,402.033478 386.535797,402.556763 
	C387.000122,430.331238 387.000275,457.582458 387.000397,484.833679 
z"/>
<path fill="#815AFF" opacity="1.000000" stroke="none" 
	d="
M387.465027,484.899231 
	C387.000275,457.582458 387.000122,430.331238 387.000214,402.623169 
	C397.357758,402.121887 407.715088,402.077454 418.537109,402.099762 
	C419.001404,429.417603 419.000977,456.668701 419.001160,484.376648 
	C408.644409,484.877289 398.287048,484.921051 387.465027,484.899231 
z"/>
<path fill="#8D4CFF" opacity="1.000000" stroke="none" 
	d="
M506.465515,364.899414 
	C506.000641,337.249176 506.000366,309.664673 506.000488,281.623230 
	C516.024658,281.121582 526.048401,281.076874 536.536072,281.556244 
	C537.000244,309.664734 537.000549,337.249176 537.000854,364.833588 
	C526.977295,364.877411 516.953674,364.921265 506.465515,364.899414 
z"/>
<path fill="#9048FF" opacity="1.000000" stroke="none" 
	d="
M537.465454,364.899414 
	C537.000549,337.249176 537.000244,309.664734 537.000427,281.623352 
	C546.779724,281.166412 556.558594,281.166412 566.667969,281.166412 
	C566.667969,309.010193 566.667969,336.675110 566.667969,364.965240 
	C557.083557,364.965240 547.506775,364.965240 537.465454,364.899414 
z"/>
<path fill="#8456FF" opacity="1.000000" stroke="none" 
	d="
M417.465088,640.899658 
	C417.000275,613.582581 417.000122,586.331238 417.000214,558.622925 
	C426.357422,558.121826 435.714447,558.077576 445.535706,558.556763 
	C446.000061,586.331299 446.000122,613.582458 446.000183,640.833557 
	C436.643372,640.877441 427.286530,640.921326 417.465088,640.899658 
z"/>
<path fill="#805BFF" opacity="1.000000" stroke="none" 
	d="
M1121.000610,689.834167 
	C1109.263550,690.223083 1097.520996,690.491638 1085.790649,691.027954 
	C1066.022217,691.931641 1046.260498,692.982849 1026.498291,694.015747 
	C1014.649536,694.634949 1002.802124,695.288208 990.959839,696.017761 
	C981.602844,696.594238 972.254578,697.310364 962.451294,697.445862 
	C962.000671,692.339844 962.001160,687.752502 962.001648,683.165161 
	C977.862427,682.443542 993.723938,681.736084 1009.583862,680.996033 
	C1023.450806,680.348999 1037.315186,679.646423 1051.182373,679.003113 
	C1066.046143,678.313538 1080.911377,677.650269 1095.777100,677.002930 
	C1103.874146,676.650330 1111.973511,676.354614 1120.535889,676.551514 
	C1121.000244,681.324707 1121.000488,685.579407 1121.000610,689.834167 
z"/>
<path fill="#7D5FFF" opacity="1.000000" stroke="none" 
	d="
M961.573853,683.099121 
	C962.001160,687.752502 962.000671,692.339844 962.000977,697.381104 
	C949.295959,698.557556 936.587769,699.241455 923.885010,700.012817 
	C908.065979,700.973389 892.249268,701.974976 876.435425,703.017090 
	C861.949036,703.971680 847.463806,704.950867 832.985901,706.024353 
	C825.936523,706.546997 818.904968,707.309448 811.432739,707.444519 
	C811.000671,702.339478 811.001160,697.753235 811.001648,693.167053 
	C827.148315,692.109436 843.294861,691.050476 859.441589,689.994629 
	C874.759827,688.992981 890.077209,687.978210 905.396973,687.000244 
	C916.274109,686.305969 927.159302,685.731018 938.031982,684.974670 
	C945.744385,684.438232 953.441895,683.687988 961.573853,683.099121 
z"/>
<path fill="#6C73FF" opacity="1.000000" stroke="none" 
	d="
M286.434723,129.642624 
	C283.255890,135.213776 280.077026,140.784912 276.342377,147.330078 
	C273.199463,144.803131 270.631317,143.617889 269.424347,141.613159 
	C264.611908,133.619797 259.846161,125.553749 255.787140,117.164314 
	C251.964371,109.263199 254.005173,100.936325 256.522308,93.136192 
	C261.695160,77.106514 269.602509,62.436646 280.222656,49.295776 
	C280.845154,48.525524 281.633026,47.888912 282.711060,47.462105 
	C283.385101,49.353642 283.934052,50.968948 283.962524,52.593388 
	C284.350464,74.711136 284.668243,96.830124 284.996490,118.948906 
	C285.023682,120.781425 284.815247,122.639435 285.054871,124.440552 
	C285.289551,126.204544 285.957153,127.910942 286.434723,129.642624 
z"/>
<path fill="#7964FF" opacity="1.000000" stroke="none" 
	d="
M810.564575,693.101013 
	C811.001160,697.753235 811.000671,702.339478 811.000916,707.379272 
	C795.534424,708.890259 780.062439,709.882751 764.601257,711.022217 
	C747.519531,712.281189 730.446838,713.663757 713.371887,715.013428 
	C700.896667,715.999573 688.424133,717.019836 675.435608,717.651733 
	C674.614258,712.907776 674.307739,708.536926 674.001221,704.166077 
	C691.542236,702.774536 709.083557,701.387085 726.624146,699.990051 
	C739.243225,698.985046 751.864075,698.000488 764.479126,696.946899 
	C779.697998,695.675964 794.911560,694.341797 810.564575,693.101013 
z"/>
<path fill="#746AFF" opacity="1.000000" stroke="none" 
	d="
M286.731506,129.467834 
	C285.957153,127.910942 285.289551,126.204544 285.054871,124.440552 
	C284.815247,122.639435 285.023682,120.781425 284.996490,118.948906 
	C284.668243,96.830124 284.350464,74.711136 283.962524,52.593388 
	C283.934052,50.968948 283.385101,49.353642 283.017395,47.310871 
	C283.598663,45.797935 284.031830,44.486782 284.915558,43.653408 
	C292.205994,36.778526 299.579926,29.992233 307.384521,23.699219 
	C308.226959,45.737400 308.566162,67.256607 309.087555,88.771400 
	C309.130463,90.542557 310.411224,92.283714 311.116852,94.038811 
	C307.653931,98.899757 304.105164,103.702301 300.748871,108.635780 
	C296.099518,115.469948 291.594879,122.402580 286.731506,129.467834 
z"/>
<path fill="#6C74FF" opacity="1.000000" stroke="none" 
	d="
M59.100548,225.054565 
	C52.814766,230.499008 46.528976,235.943451 38.892338,242.557938 
	C34.436432,230.873154 28.969866,220.701324 26.841063,209.873291 
	C24.333208,197.117233 24.004868,183.196243 35.302334,173.603333 
	C41.170689,168.620392 48.977402,165.920273 56.377419,162.704559 
	C57.230907,181.957932 57.587528,200.696320 58.043030,219.432297 
	C58.088776,221.313843 58.733700,223.180832 59.100548,225.054565 
z"/>
<path fill="#7B61FF" opacity="1.000000" stroke="none" 
	d="
M311.414246,93.897781 
	C310.411224,92.283714 309.130463,90.542557 309.087555,88.771400 
	C308.566162,67.256607 308.226959,45.737400 307.757751,23.683807 
	C314.617889,18.155703 321.549408,13.147260 328.514557,8.186082 
	C329.684418,7.352829 330.999939,6.724089 332.602356,5.943860 
	C333.304382,8.662400 333.899780,11.432570 333.960083,14.214339 
	C334.369781,33.114864 334.666656,52.017834 335.000244,71.377014 
	C327.237579,79.141594 319.474609,86.449173 311.414246,93.897781 
z"/>
<path fill="#8753FF" opacity="1.000000" stroke="none" 
	d="
M446.464722,640.899353 
	C446.000122,613.582458 446.000061,586.331299 446.000092,558.623291 
	C453.024231,558.121948 460.048248,558.077454 467.536896,558.099609 
	C468.001129,585.417480 468.000763,612.668701 468.000916,640.376770 
	C460.977417,640.877502 453.953369,640.921326 446.464722,640.899353 
z"/>
<path fill="#8456FF" opacity="1.000000" stroke="none" 
	d="
M1121.424316,689.896973 
	C1121.000488,685.579407 1121.000244,681.324707 1121.000244,676.617920 
	C1125.244873,675.777527 1129.482544,675.173218 1133.734741,675.040527 
	C1147.796997,674.601685 1161.865723,674.369019 1175.929932,673.986572 
	C1185.842651,673.717041 1195.751465,673.309692 1205.663452,673.005981 
	C1217.401611,672.646301 1229.142090,672.359192 1240.878906,671.962708 
	C1242.313965,671.914307 1243.732544,671.385315 1245.579346,671.572876 
	C1246.000122,675.989014 1246.000244,679.911255 1246.000366,683.833496 
	C1238.251709,684.222351 1230.505249,684.668762 1222.753784,684.988220 
	C1205.569092,685.696533 1188.379517,686.287598 1171.196289,687.028870 
	C1157.833984,687.605286 1144.476562,688.306274 1131.120728,689.022034 
	C1128.021973,689.188110 1124.938477,689.639648 1121.424316,689.896973 
z"/>
<path fill="#7667FF" opacity="1.000000" stroke="none" 
	d="
M673.579346,704.103027 
	C674.307739,708.536926 674.614258,712.907776 674.977295,717.700134 
	C670.724792,718.742188 666.433472,719.571350 662.103027,719.940674 
	C652.603760,720.750610 643.068054,721.151978 633.577759,722.044617 
	C621.679016,723.163696 609.817627,724.674011 597.927124,725.888733 
	C589.925049,726.706238 581.894226,727.240906 573.888000,728.022156 
	C568.526184,728.545349 563.184998,729.278992 557.417236,729.424194 
	C557.000366,724.675171 557.000793,720.420410 557.001160,716.165710 
	C572.178162,714.458252 587.346558,712.669678 602.534973,711.070435 
	C613.493469,709.916443 624.484497,709.075317 635.450073,707.984375 
	C648.025513,706.733154 660.588928,705.360046 673.579346,704.103027 
z"/>
<path fill="#746AFF" opacity="1.000000" stroke="none" 
	d="
M556.602295,716.259155 
	C557.000793,720.420410 557.000366,724.675171 557.000610,729.381836 
	C541.842224,731.540588 526.688171,733.292725 511.522797,734.940430 
	C498.469391,736.358704 485.384064,737.498901 472.347961,739.056152 
	C460.324860,740.492493 448.349365,742.326904 436.349426,743.960205 
	C435.533691,744.071289 434.688690,743.967346 433.428833,743.451721 
	C433.000702,739.348755 433.001007,735.757446 433.001312,732.166138 
	C439.945282,731.111023 446.880096,729.990723 453.835297,729.015625 
	C465.341034,727.402283 476.851685,725.818115 488.375854,724.343567 
	C497.805420,723.137024 507.261383,722.138184 516.698975,720.992310 
	C527.100464,719.729370 537.492004,718.384521 547.893127,717.118164 
	C550.653381,716.782166 553.432861,716.603577 556.602295,716.259155 
z"/>
<path fill="#706EFF" opacity="1.000000" stroke="none" 
	d="
M432.573059,732.100586 
	C433.001007,735.757446 433.000702,739.348755 433.000854,743.386902 
	C420.540039,745.556580 408.069244,747.213745 395.620148,749.020508 
	C382.856506,750.872925 370.117432,752.893921 357.361389,754.799377 
	C345.566132,756.561279 333.763123,758.271057 321.962555,759.997314 
	C317.275848,760.682983 312.586517,761.350952 307.455627,761.616028 
	C307.008942,758.191650 307.004974,755.178223 307.001038,752.164734 
	C327.786713,748.461304 348.530304,744.497070 369.370544,741.131531 
	C388.305939,738.073547 407.346863,735.669739 426.339874,732.967773 
	C428.279816,732.691772 430.210083,732.347656 432.573059,732.100586 
z"/>
<path fill="#8753FF" opacity="1.000000" stroke="none" 
	d="
M1246.464844,683.899292 
	C1246.000244,679.911255 1246.000122,675.989014 1246.000244,671.616699 
	C1284.690796,670.455261 1323.381226,669.743958 1362.535889,669.542603 
	C1363.000122,673.313293 1363.000366,676.573975 1363.000488,679.834656 
	C1351.750854,680.223328 1340.501343,680.614258 1329.251587,681.000122 
	C1309.737427,681.669495 1290.222656,682.321960 1270.709229,683.010193 
	C1262.781250,683.289734 1254.855957,683.644470 1246.464844,683.899292 
z"/>
<path fill="#726CFF" opacity="1.000000" stroke="none" 
	d="
M59.450462,225.018265 
	C58.733700,223.180832 58.088776,221.313843 58.043030,219.432297 
	C57.587528,200.696320 57.230907,181.957932 56.768150,162.683563 
	C64.190071,159.090195 71.690193,156.033493 79.588745,153.405151 
	C80.324783,173.167221 80.662392,192.500931 80.999992,211.834656 
	C73.933456,216.217087 66.866913,220.599533 59.450462,225.018265 
z"/>
<path fill="#7C60FF" opacity="1.000000" stroke="none" 
	d="
M1724.166016,391.002258 
	C1724.851685,382.157288 1725.537354,373.312347 1726.907959,364.254364 
	C1736.089966,371.555664 1744.501953,379.169464 1753.116577,386.546631 
	C1758.189697,390.890961 1763.584229,394.859863 1768.834106,398.997620 
	C1769.210815,409.023621 1769.587402,419.049622 1769.566528,429.495270 
	C1768.728027,429.700745 1768.204224,429.576843 1767.857788,429.259399 
	C1755.224365,417.680389 1742.640869,406.046661 1729.947510,394.533813 
	C1728.304321,393.043427 1726.106812,392.164459 1724.166016,391.002258 
z"/>
<path fill="#7667FF" opacity="1.000000" stroke="none" 
	d="
M1723.964722,391.370422 
	C1726.106812,392.164459 1728.304321,393.043427 1729.947510,394.533813 
	C1742.640869,406.046661 1755.224365,417.680389 1767.857788,429.259399 
	C1768.204224,429.576843 1768.728027,429.700745 1769.501709,429.955536 
	C1770.211060,437.687714 1770.587891,445.379242 1770.559570,453.492920 
	C1768.511353,452.851746 1766.678833,451.995300 1765.256348,450.691620 
	C1755.769409,441.998169 1746.487061,433.078369 1736.894287,424.505127 
	C1731.908569,420.049316 1726.424561,416.151001 1721.165649,412.000946 
	C1722.031616,405.246826 1722.897461,398.492706 1723.964722,391.370422 
z"/>
<path fill="#8753FF" opacity="1.000000" stroke="none" 
	d="
M137.002686,146.165726 
	C144.741333,147.443344 152.479980,148.720947 160.609711,150.539139 
	C161.001190,165.664276 161.001587,180.248856 161.001984,194.833420 
	C153.617859,195.208405 146.233719,195.583405 138.423492,195.479111 
	C137.664932,190.547989 137.096207,186.098801 137.045761,181.643768 
	C136.911880,169.819107 137.001785,157.991913 137.002686,146.165726 
z"/>
<path fill="#805BFF" opacity="1.000000" stroke="none" 
	d="
M136.538055,146.098801 
	C137.001785,157.991913 136.911880,169.819107 137.045761,181.643768 
	C137.096207,186.098801 137.664932,190.547989 138.000031,195.417114 
	C130.961716,196.897858 123.920792,197.961319 116.446091,198.596130 
	C115.675537,180.833679 115.338753,163.499847 115.001976,146.166031 
	C122.025795,146.121307 129.049606,146.076599 136.538055,146.098801 
z"/>
<path fill="#6C73FF" opacity="1.000000" stroke="none" 
	d="
M306.595886,752.119629 
	C307.004974,755.178223 307.008942,758.191650 307.022919,761.664917 
	C298.253967,763.747070 289.480286,765.398865 280.694794,766.985107 
	C266.865723,769.481812 253.003189,771.801086 239.201370,774.438965 
	C221.400330,777.841309 203.645172,781.483643 185.455536,785.068787 
	C184.782791,783.284180 184.524750,781.453430 184.109985,779.257324 
	C198.632172,775.265381 213.244110,771.334229 228.006332,768.086182 
	C248.254715,763.631042 268.616028,759.688843 288.931244,755.538086 
	C294.680298,754.363403 300.437378,753.227966 306.595886,752.119629 
z"/>
<path fill="#815AFF" opacity="1.000000" stroke="none" 
	d="
M1768.896484,398.574066 
	C1763.584229,394.859863 1758.189697,390.890961 1753.116577,386.546631 
	C1744.501953,379.169464 1736.089966,371.555664 1727.239014,363.999817 
	C1727.601318,356.262604 1728.317505,348.566864 1729.454468,340.440979 
	C1730.892578,340.486328 1732.096680,340.752899 1732.897705,341.469940 
	C1740.293823,348.091309 1747.554199,354.865540 1754.994507,361.436127 
	C1758.793213,364.790894 1762.878662,367.821136 1766.834473,370.998108 
	C1767.542603,380.048889 1768.250732,389.099731 1768.896484,398.574066 
z"/>
<path fill="#8950FF" opacity="1.000000" stroke="none" 
	d="
M1363.465088,679.900635 
	C1363.000366,676.573975 1363.000122,673.313293 1363.000244,669.608948 
	C1397.024170,668.788025 1431.047974,668.410767 1465.535889,668.533081 
	C1466.000122,671.632874 1466.000244,674.233093 1466.000366,676.833374 
	C1431.976807,677.877808 1397.953247,678.922180 1363.465088,679.900635 
z"/>
<path fill="#8B4EFF" opacity="1.000000" stroke="none" 
	d="
M361.404144,54.055077 
	C360.693848,37.436913 360.347290,20.758192 360.001465,3.622687 
	C377.070160,10.835490 388.133148,24.002764 394.985199,40.685898 
	C383.692688,45.210274 372.730255,49.602394 361.404144,54.055077 
z"/>
<path fill="#7766FF" opacity="1.000000" stroke="none" 
	d="
M81.349373,211.777954 
	C80.662392,192.500931 80.324783,173.167221 79.976715,153.355759 
	C85.006065,151.581329 90.045876,150.284637 95.807343,149.253052 
	C97.019333,158.371384 97.715958,167.219315 97.944138,176.079300 
	C98.190834,185.658478 98.000031,195.248917 98.000053,204.834442 
	C92.566284,207.130051 87.132523,209.425659 81.349373,211.777954 
z"/>
<path fill="#8D4CFF" opacity="1.000000" stroke="none" 
	d="
M161.466553,194.898712 
	C161.001587,180.248856 161.001190,165.664276 161.001465,150.622925 
	C173.498856,154.242920 181.763336,162.508423 186.151947,174.928284 
	C187.271103,178.095505 189.891953,180.713547 191.164322,183.850967 
	C192.220856,186.456207 193.393372,189.902573 192.470779,192.129684 
	C191.783615,193.788437 187.859207,194.768738 185.326431,194.876831 
	C177.540955,195.209122 169.731354,194.976852 161.466553,194.898712 
z"/>
<path fill="#7B61FF" opacity="1.000000" stroke="none" 
	d="
M98.363564,204.767273 
	C98.000031,195.248917 98.190834,185.658478 97.944138,176.079300 
	C97.715958,167.219315 97.019333,158.371384 96.215744,149.230621 
	C101.982742,147.973297 108.062996,147.003479 114.572617,146.099854 
	C115.338753,163.499847 115.675537,180.833679 116.022415,198.645294 
	C110.264046,200.982117 104.495560,202.841125 98.363564,204.767273 
z"/>
<path fill="#726CFF" opacity="1.000000" stroke="none" 
	d="
M1721.100098,412.442169 
	C1726.424561,416.151001 1731.908569,420.049316 1736.894287,424.505127 
	C1746.487061,433.078369 1755.769409,441.998169 1765.256348,450.691620 
	C1766.678833,451.995300 1768.511353,452.851746 1770.494385,453.955963 
	C1771.211060,460.022064 1771.587891,466.047211 1771.559326,472.493622 
	C1769.508667,471.848938 1767.675049,470.989105 1766.247192,469.684814 
	C1753.437378,457.983856 1740.747192,446.151520 1727.896362,434.496155 
	C1725.512573,432.334351 1722.565430,430.793762 1719.878296,428.966492 
	C1720.263672,423.605469 1720.649170,418.244446 1721.100098,412.442169 
z"/>
<path fill="#7F5DFF" opacity="1.000000" stroke="none" 
	d="
M222.958023,129.886734 
	C227.718613,127.257141 232.479202,124.627548 237.614243,122.376045 
	C238.325806,127.346901 238.897278,131.936783 238.953796,136.532990 
	C239.094284,147.959351 238.934036,159.389267 239.047562,170.816223 
	C239.075073,173.585526 239.694458,176.348969 240.041687,179.115097 
	C235.284576,181.741486 230.527481,184.367874 225.239990,186.658997 
	C224.473343,185.039185 224.056549,183.758636 224.028000,182.469467 
	C223.639893,164.942581 223.305603,147.414520 222.958023,129.886734 
z"/>
<path fill="#8B4EFF" opacity="1.000000" stroke="none" 
	d="
M1466.464844,676.899658 
	C1466.000244,674.233093 1466.000122,671.632874 1466.000244,668.599609 
	C1500.690796,668.121582 1535.381226,668.076538 1570.535889,668.514771 
	C1571.000244,670.943848 1571.000366,672.889648 1571.000610,674.835449 
	C1536.310181,675.545654 1501.619751,676.255798 1466.464844,676.899658 
z"/>
<path fill="#706FFF" opacity="1.000000" stroke="none" 
	d="
M1719.550293,429.221283 
	C1722.565430,430.793762 1725.512573,432.334351 1727.896362,434.496155 
	C1740.747192,446.151520 1753.437378,457.983856 1766.247192,469.684814 
	C1767.675049,470.989105 1769.508667,471.848938 1771.494141,472.955841 
	C1771.834106,474.456879 1771.834106,475.916931 1771.834106,477.385529 
	C1764.076416,476.229614 1756.472778,475.096588 1748.429077,473.542603 
	C1747.402588,471.993713 1747.067383,470.595093 1746.190063,469.780396 
	C1738.606567,462.739227 1730.969849,455.753235 1723.233154,448.881134 
	C1721.812744,447.619476 1719.868774,446.947174 1718.166504,446.002869 
	C1718.518311,440.493927 1718.870239,434.985016 1719.550293,429.221283 
z"/>
<path fill="#7766FF" opacity="1.000000" stroke="none" 
	d="
M222.601471,129.944489 
	C223.305603,147.414520 223.639893,164.942581 224.028000,182.469467 
	C224.056549,183.758636 224.473343,185.039185 224.878326,186.715607 
	C220.635193,189.413544 216.223343,191.719620 211.411850,193.596725 
	C210.674515,176.333099 210.362427,159.497833 209.957535,142.664795 
	C209.919144,141.067963 209.299103,139.485123 208.949097,137.895798 
	C213.381042,135.264618 217.812988,132.633423 222.601471,129.944489 
z"/>
<path fill="#8753FF" opacity="1.000000" stroke="none" 
	d="
M240.397980,179.055222 
	C239.694458,176.348969 239.075073,173.585526 239.047562,170.816223 
	C238.934036,159.389267 239.094284,147.959351 238.953796,136.532990 
	C238.897278,131.936783 238.325806,127.346901 237.976852,122.316223 
	C245.239441,118.690750 248.350983,119.903450 253.058197,128.595535 
	C253.045029,141.562286 252.979950,153.690887 253.047256,165.818771 
	C253.057037,167.583176 253.699692,169.344055 254.049500,171.106567 
	C249.617752,173.736160 245.186020,176.365753 240.397980,179.055222 
z"/>
<path fill="#8555FF" opacity="1.000000" stroke="none" 
	d="
M1766.899902,370.534851 
	C1762.878662,367.821136 1758.793213,364.790894 1754.994507,361.436127 
	C1747.554199,354.865540 1740.293823,348.091309 1732.897705,341.469940 
	C1732.096680,340.752899 1730.892578,340.486328 1729.520508,340.005249 
	C1729.788330,333.956909 1730.410767,327.914154 1731.453369,321.440857 
	C1733.008057,321.600800 1734.333740,321.981628 1735.247803,322.814392 
	C1743.926758,330.720703 1752.497437,338.746307 1761.208252,346.616882 
	C1762.452148,347.740936 1764.277832,348.221191 1765.834229,348.999451 
	C1766.211304,356.023499 1766.588379,363.047546 1766.899902,370.534851 
z"/>
<path fill="#8E4AFF" opacity="1.000000" stroke="none" 
	d="
M1733.946167,299.898499 
	C1734.568359,291.824615 1740.234131,286.359344 1748.295288,286.057159 
	C1755.248901,285.796509 1762.177368,291.472107 1762.939087,298.646912 
	C1763.871704,307.430817 1764.311523,316.266998 1764.545410,325.534546 
	C1762.756470,325.164276 1761.214600,324.532043 1760.043823,323.484955 
	C1751.303345,315.668976 1742.636230,307.770905 1733.946167,299.898499 
z"/>
<path fill="#8950FF" opacity="1.000000" stroke="none" 
	d="
M1733.605713,300.149719 
	C1742.636230,307.770905 1751.303345,315.668976 1760.043823,323.484955 
	C1761.214600,324.532043 1762.756470,325.164276 1764.480225,325.992981 
	C1765.211304,333.356232 1765.588379,340.715027 1765.899902,348.536652 
	C1764.277832,348.221191 1762.452148,347.740936 1761.208252,346.616882 
	C1752.497437,338.746307 1743.926758,330.720703 1735.247803,322.814392 
	C1734.333740,321.981628 1733.008057,321.600800 1731.519653,321.004700 
	C1731.865845,314.133026 1732.565552,307.266968 1733.605713,300.149719 
z"/>
<path fill="#7D5FFF" opacity="1.000000" stroke="none" 
	d="
M1706.877930,587.967468 
	C1708.029297,584.070801 1709.180664,580.174133 1710.790527,576.396484 
	C1717.496826,582.174133 1723.725830,587.853516 1729.997559,593.485229 
	C1735.654907,598.565308 1741.460083,603.484985 1747.014038,608.674377 
	C1752.556763,613.853088 1757.868408,619.279053 1763.281372,624.596558 
	C1761.472412,627.160522 1759.663452,629.724365 1757.469727,632.176270 
	C1750.314697,625.800659 1743.549072,619.531677 1736.772461,613.274597 
	C1728.159668,605.322083 1719.573486,597.339905 1710.871216,589.486267 
	C1709.885864,588.597046 1708.225342,588.455627 1706.877930,587.967468 
z"/>
<path fill="#815AFF" opacity="1.000000" stroke="none" 
	d="
M1763.553711,624.367859 
	C1757.868408,619.279053 1752.556763,613.853088 1747.014038,608.674377 
	C1741.460083,603.484985 1735.654907,598.565308 1729.997559,593.485229 
	C1723.725830,587.853516 1717.496826,582.174133 1711.098633,576.206116 
	C1712.392700,573.346191 1713.837036,570.795654 1715.897217,568.242310 
	C1721.407104,572.724487 1726.266235,577.248413 1731.205933,581.682678 
	C1735.519775,585.555176 1739.995850,589.248230 1744.272949,593.159790 
	C1752.579590,600.756287 1760.796875,608.450439 1769.051147,616.104126 
	C1767.309570,618.782532 1765.567871,621.460876 1763.553711,624.367859 
z"/>
<path fill="#8951FF" opacity="1.000000" stroke="none" 
	d="
M1722.948242,560.895996 
	C1726.033569,559.256653 1729.119019,557.617310 1732.722046,556.244080 
	C1746.355835,568.688293 1759.455322,580.884521 1772.631592,592.997009 
	C1773.376465,593.681824 1774.751953,593.680481 1775.833984,593.998474 
	C1775.119629,598.223389 1774.405396,602.448303 1773.186523,606.605591 
	C1767.968628,602.372803 1763.239746,598.225281 1758.545898,594.038330 
	C1752.245972,588.418640 1745.893066,582.854614 1739.712402,577.105957 
	C1734.021606,571.813110 1728.528442,566.307800 1722.948242,560.895996 
z"/>
<path fill="#8556FF" opacity="1.000000" stroke="none" 
	d="
M1722.638794,561.042725 
	C1728.528442,566.307800 1734.021606,571.813110 1739.712402,577.105957 
	C1745.893066,582.854614 1752.245972,588.418640 1758.545898,594.038330 
	C1763.239746,598.225281 1767.968628,602.372803 1772.867310,606.820251 
	C1771.921143,609.980103 1770.789429,612.857666 1769.354492,615.919678 
	C1760.796875,608.450439 1752.579590,600.756287 1744.272949,593.159790 
	C1739.995850,589.248230 1735.519775,585.555176 1731.205933,581.682678 
	C1726.266235,577.248413 1721.407104,572.724487 1716.203857,568.094482 
	C1718.039551,565.696106 1720.184448,563.442810 1722.638794,561.042725 
z"/>
<path fill="#706EFF" opacity="1.000000" stroke="none" 
	d="
M208.591202,137.949951 
	C209.299103,139.485123 209.919144,141.067963 209.957535,142.664795 
	C210.362427,159.497833 210.674515,176.333099 211.022461,193.645050 
	C207.028763,195.333664 203.828110,193.636902 201.493805,190.744034 
	C199.604340,188.402466 198.472839,185.449280 197.266083,182.123779 
	C197.684677,171.046494 197.894379,160.613037 197.949203,150.178787 
	C197.958450,148.419250 197.299408,146.656235 196.949158,144.894821 
	C200.710526,142.597900 204.471909,140.300995 208.591202,137.949951 
z"/>
<path fill="#7766FF" opacity="1.000000" stroke="none" 
	d="
M1706.546265,588.227295 
	C1708.225342,588.455627 1709.885864,588.597046 1710.871216,589.486267 
	C1719.573486,597.339905 1728.159668,605.322083 1736.772461,613.274597 
	C1743.549072,619.531677 1750.314697,625.800659 1757.234863,632.447510 
	C1755.801270,635.141052 1754.218140,637.451416 1752.194580,639.622314 
	C1749.878906,637.864441 1747.962280,636.291260 1746.134888,634.620483 
	C1734.126587,623.641357 1722.160767,612.615417 1710.099365,601.695007 
	C1709.097656,600.787964 1707.491455,600.548523 1706.166016,599.998901 
	C1706.182251,596.161621 1706.198364,592.324341 1706.546265,588.227295 
z"/>
<path fill="#8E4AFF" opacity="1.000000" stroke="none" 
	d="
M1775.898926,593.556885 
	C1774.751953,593.680481 1773.376465,593.681824 1772.631592,592.997009 
	C1759.455322,580.884521 1746.355835,568.688293 1733.096924,556.200256 
	C1742.190552,553.432678 1751.153564,554.625427 1758.541748,560.424133 
	C1768.957397,568.599182 1776.568481,578.809631 1775.898926,593.556885 
z"/>
<path fill="#8358FF" opacity="1.000000" stroke="none" 
	d="
M370.051208,91.102318 
	C364.280243,96.733917 358.509338,102.365517 352.224182,107.660439 
	C351.473328,98.928024 351.302673,90.529617 350.962433,82.138084 
	C350.850677,79.381332 350.299530,76.642395 349.949310,73.895309 
	C355.694519,70.268745 361.439728,66.642174 367.857605,63.267288 
	C368.687256,67.968895 368.773254,72.422768 369.020569,76.867668 
	C369.284821,81.616959 369.701202,86.357796 370.051208,91.102318 
z"/>
<path fill="#7C60FF" opacity="1.000000" stroke="none" 
	d="
M349.598816,73.948692 
	C350.299530,76.642395 350.850677,79.381332 350.962433,82.138084 
	C351.302673,90.529617 351.473328,98.928024 351.878784,107.715546 
	C346.921021,112.315704 341.794464,116.524078 336.333984,120.326065 
	C335.663696,109.473145 335.351868,99.025665 334.947266,88.581772 
	C334.912781,87.692215 334.260132,86.826591 333.894684,85.949844 
	C339.012543,81.967255 344.130432,77.984657 349.598816,73.948692 
z"/>
<path fill="#7E5EFF" opacity="1.000000" stroke="none" 
	d="
M128.000854,235.834564 
	C122.245758,237.787048 116.490669,239.739563 110.356064,241.351685 
	C109.651840,231.396301 109.327110,221.781311 109.002388,212.166306 
	C114.740349,210.467087 120.478317,208.767868 126.608299,207.573059 
	C127.333832,217.329819 127.667343,226.582199 128.000854,235.834564 
z"/>
<path fill="#6C74FF" opacity="1.000000" stroke="none" 
	d="
M1717.963745,446.372620 
	C1719.868774,446.947174 1721.812744,447.619476 1723.233154,448.881134 
	C1730.969849,455.753235 1738.606567,462.739227 1746.190063,469.780396 
	C1747.067383,470.595093 1747.402588,471.993713 1747.995117,473.477844 
	C1737.208618,474.237427 1726.416260,474.640808 1714.620605,475.081696 
	C1715.625000,466.018433 1716.692993,456.380432 1717.963745,446.372620 
z"/>
<path fill="#7667FF" opacity="1.000000" stroke="none" 
	d="
M333.595398,86.091202 
	C334.260132,86.826591 334.912781,87.692215 334.947266,88.581772 
	C335.351868,99.025665 335.663696,109.473145 336.000061,120.376411 
	C331.227570,123.799179 326.455048,126.765213 321.341248,129.348587 
	C320.666199,120.652069 320.366577,112.336525 319.955353,104.026497 
	C319.903870,102.985840 319.262939,101.974342 318.895111,100.949341 
	C320.850433,98.555374 322.637817,95.994965 324.803833,93.809868 
	C327.469635,91.120567 330.451080,88.744171 333.595398,86.091202 
z"/>
<path fill="#746AFF" opacity="1.000000" stroke="none" 
	d="
M1706.100464,600.449402 
	C1707.491455,600.548523 1709.097656,600.787964 1710.099365,601.695007 
	C1722.160767,612.615417 1734.126587,623.641357 1746.134888,634.620483 
	C1747.962280,636.291260 1749.878906,637.864441 1751.900513,639.795776 
	C1750.575317,642.327209 1749.104004,644.545776 1747.191162,646.625732 
	C1745.585205,645.571167 1744.353027,644.728516 1743.266602,643.727722 
	C1734.238892,635.411682 1725.300415,626.997559 1716.191772,618.771484 
	C1713.412109,616.261169 1710.187134,614.243774 1707.166138,612.000671 
	C1706.789062,608.300415 1706.411987,604.600159 1706.100464,600.449402 
z"/>
<path fill="#8E4AFF" opacity="1.000000" stroke="none" 
	d="
M1571.432983,674.901062 
	C1571.000366,672.889648 1571.000244,670.943848 1571.000244,668.581299 
	C1600.691040,668.120605 1630.381348,668.076660 1660.535889,668.488525 
	C1661.000122,670.240601 1661.000244,671.536987 1661.000366,672.833252 
	C1660.671997,672.878540 1660.344116,672.958801 1660.015137,672.963867 
	C1637.362671,673.312927 1614.709229,673.606567 1592.058228,674.029785 
	C1585.323853,674.155518 1578.596069,674.644226 1571.432983,674.901062 
z"/>
<path fill="#8B4EFF" opacity="1.000000" stroke="none" 
	d="
M370.346008,90.929573 
	C369.701202,86.357796 369.284821,81.616959 369.020569,76.867668 
	C368.773254,72.422768 368.687256,67.968895 368.217041,63.231606 
	C376.337372,57.455109 385.782135,54.906654 396.353424,52.804638 
	C395.712372,54.555397 395.553101,55.657375 394.977570,56.461441 
	C387.194214,67.335945 379.349579,78.166595 371.536530,89.019920 
	C371.160126,89.542847 370.935913,90.175354 370.346008,90.929573 
z"/>
<path fill="#7766FF" opacity="1.000000" stroke="none" 
	d="
M108.625336,212.114563 
	C109.327110,221.781311 109.651840,231.396301 109.989471,241.422623 
	C104.612152,242.876846 99.221924,243.919754 93.414413,244.481155 
	C92.664764,237.593338 92.441238,231.178299 91.929619,224.786316 
	C91.787498,223.010773 90.791290,221.303589 90.186920,219.565033 
	C96.207375,217.064301 102.227837,214.563568 108.625336,212.114563 
z"/>
<path fill="#706EFF" opacity="1.000000" stroke="none" 
	d="
M1707.101074,612.410828 
	C1710.187134,614.243774 1713.412109,616.261169 1716.191772,618.771484 
	C1725.300415,626.997559 1734.238892,635.411682 1743.266602,643.727722 
	C1744.353027,644.728516 1745.585205,645.571167 1746.898315,646.797668 
	C1745.594238,649.638123 1744.141602,652.168030 1742.087402,654.729187 
	C1736.499023,650.182495 1731.645142,645.447754 1726.485718,641.073303 
	C1721.888062,637.175293 1716.952393,633.675903 1712.166016,630.000610 
	C1710.456055,624.274048 1708.745972,618.547485 1707.101074,612.410828 
z"/>
<path fill="#7964FF" opacity="1.000000" stroke="none" 
	d="
M1761.110474,527.044312 
	C1760.649780,529.237976 1760.189209,531.431641 1759.048096,533.818115 
	C1757.209351,533.469177 1755.829346,533.170532 1754.927734,532.347717 
	C1745.894531,524.102417 1737.049805,515.647461 1727.908691,507.525482 
	C1724.309937,504.328186 1720.098755,501.820343 1716.166504,498.998474 
	C1715.133545,495.613953 1713.867676,492.275940 1713.178223,488.822876 
	C1712.888794,487.372955 1713.818726,485.679565 1714.639526,484.463898 
	C1715.993896,485.991272 1716.768311,487.296051 1717.833496,488.289154 
	C1726.681396,496.538422 1735.510254,504.810669 1744.495483,512.908813 
	C1749.894897,517.774963 1755.563110,522.342590 1761.110474,527.044312 
z"/>
<path fill="#8358FF" opacity="1.000000" stroke="none" 
	d="
M128.356018,235.773376 
	C127.667343,226.582199 127.333832,217.329819 127.000618,207.621872 
	C132.355713,206.436035 137.710510,205.705780 143.677490,205.325378 
	C144.526703,213.061722 144.763748,220.448227 145.000793,227.834717 
	C139.570923,230.460556 134.141052,233.086380 128.356018,235.773376 
z"/>
<path fill="#8E4BFF" opacity="1.000000" stroke="none" 
	d="
M254.405731,171.050171 
	C253.699692,169.344055 253.057037,167.583176 253.047256,165.818771 
	C252.979950,153.690887 253.045029,141.562286 253.104034,128.922745 
	C257.831573,136.822861 262.711548,145.136246 267.140106,153.683517 
	C269.648224,158.524216 267.330688,163.870438 262.032104,166.974930 
	C259.643738,168.374283 257.187439,169.657730 254.405731,171.050171 
z"/>
<path fill="#706FFF" opacity="1.000000" stroke="none" 
	d="
M318.596130,101.090958 
	C319.262939,101.974342 319.903870,102.985840 319.955353,104.026497 
	C320.366577,112.336525 320.666199,120.652069 321.000061,129.399612 
	C316.242584,132.201065 311.485046,134.568832 306.363525,136.429230 
	C305.652069,129.577072 305.304626,123.232262 304.957214,116.887451 
	C309.403870,111.669159 313.850525,106.450867 318.596130,101.090958 
z"/>
<path fill="#6B74FF" opacity="1.000000" stroke="none" 
	d="
M1712.114014,630.365051 
	C1716.952393,633.675903 1721.888062,637.175293 1726.485718,641.073303 
	C1731.645142,645.447754 1736.499023,650.182495 1741.795166,654.905640 
	C1740.744019,659.417419 1739.383667,663.783936 1737.878052,668.799500 
	C1736.789917,669.278687 1735.847168,669.108887 1734.904297,668.939026 
	C1727.290161,656.202515 1719.676025,643.466003 1712.114014,630.365051 
z"/>
<path fill="#726CFF" opacity="1.000000" stroke="none" 
	d="
M89.899376,219.720367 
	C90.791290,221.303589 91.787498,223.010773 91.929619,224.786316 
	C92.441238,231.178299 92.664764,237.593338 92.999405,244.416840 
	C87.621712,245.543808 82.241737,246.253616 76.431335,246.444092 
	C75.668068,240.005142 75.335236,234.085556 75.002403,228.165955 
	C79.872215,225.402542 84.742020,222.639114 89.899376,219.720367 
z"/>
<path fill="#7E5EFF" opacity="1.000000" stroke="none" 
	d="
M1761.419678,526.831299 
	C1755.563110,522.342590 1749.894897,517.774963 1744.495483,512.908813 
	C1735.510254,504.810669 1726.681396,496.538422 1717.833496,488.289154 
	C1716.768311,487.296051 1715.993896,485.991272 1715.043579,484.498657 
	C1717.068481,483.789917 1719.134521,483.413422 1721.643066,483.434784 
	C1722.409790,484.399963 1722.617188,485.094116 1723.075439,485.516052 
	C1735.232910,496.711304 1747.398804,507.897797 1759.638428,519.002991 
	C1760.387573,519.682861 1761.754272,519.681946 1762.833740,519.997803 
	C1762.465454,522.204590 1762.097168,524.411377 1761.419678,526.831299 
z"/>
<path fill="#6B74FF" opacity="1.000000" stroke="none" 
	d="
M196.589691,144.949615 
	C197.299408,146.656235 197.958450,148.419250 197.949203,150.178787 
	C197.894379,160.613037 197.684677,171.046494 197.211914,181.765533 
	C193.231125,175.567490 189.325317,169.205414 185.970886,162.564804 
	C182.938782,156.562256 184.359818,152.198380 189.887848,148.578690 
	C191.913589,147.252274 194.111084,146.188156 196.589691,144.949615 
z"/>
<path fill="#7469FF" opacity="1.000000" stroke="none" 
	d="
M1716.115723,499.377319 
	C1720.098755,501.820343 1724.309937,504.328186 1727.908691,507.525482 
	C1737.049805,515.647461 1745.894531,524.102417 1754.927734,532.347717 
	C1755.829346,533.170532 1757.209351,533.469177 1758.740723,534.026794 
	C1758.699951,536.463745 1758.386963,538.910889 1757.780273,541.282837 
	C1757.668335,541.720154 1756.367065,541.853271 1755.265625,541.648132 
	C1754.794067,540.862122 1754.755737,540.465637 1754.537598,540.260437 
	C1744.373657,530.704956 1734.225342,521.132080 1723.966919,511.679016 
	C1722.958862,510.750275 1721.262329,510.568817 1719.885376,510.040466 
	C1718.611938,506.612335 1717.338501,503.184235 1716.115723,499.377319 
z"/>
<path fill="#8951FF" opacity="1.000000" stroke="none" 
	d="
M145.345490,227.782104 
	C144.763748,220.448227 144.526703,213.061722 144.121063,205.283295 
	C147.281982,204.594025 150.613342,204.315491 153.940292,203.991776 
	C155.694366,203.821106 157.440781,203.571640 159.595551,203.694168 
	C160.347458,208.725281 160.694458,213.419983 161.041473,218.114685 
	C155.924393,221.319626 150.807312,224.524551 145.345490,227.782104 
z"/>
<path fill="#6C73FF" opacity="1.000000" stroke="none" 
	d="
M74.662430,228.214417 
	C75.335236,234.085556 75.668068,240.005142 76.001526,246.379395 
	C68.116943,246.834045 60.231716,246.834045 52.346489,246.834045 
	C52.045555,246.294067 51.744617,245.754089 51.443684,245.214111 
	C59.069939,239.563705 66.696198,233.913284 74.662430,228.214417 
z"/>
<path fill="#9048FF" opacity="1.000000" stroke="none" 
	d="
M1734.442627,668.963379 
	C1735.847168,669.108887 1736.789917,669.278687 1737.909424,669.196594 
	C1742.650635,669.295959 1747.211548,669.710205 1751.781250,669.973450 
	C1754.243286,670.115295 1756.720093,669.998657 1759.212036,671.001038 
	C1753.935303,671.001038 1748.657715,670.940613 1743.381958,671.011353 
	C1720.320312,671.320496 1697.258789,671.629639 1674.198730,672.036316 
	C1670.097534,672.108643 1666.004395,672.643738 1661.453979,672.899231 
	C1661.000244,671.536987 1661.000122,670.240601 1661.000244,668.555481 
	C1685.327148,668.440369 1709.654053,668.714050 1734.442627,668.963379 
z"/>
<path fill="#726CFF" opacity="1.000000" stroke="none" 
	d="
M1719.932617,510.427246 
	C1721.262329,510.568817 1722.958862,510.750275 1723.966919,511.679016 
	C1734.225342,521.132080 1744.373657,530.704956 1754.537598,540.260437 
	C1754.755737,540.465637 1754.794067,540.862122 1754.958130,541.501648 
	C1751.939453,541.209900 1748.878784,540.585999 1745.366333,539.564087 
	C1740.315796,534.679993 1735.822754,530.077698 1731.073975,525.756470 
	C1728.677002,523.575195 1725.816772,521.902954 1723.166016,520.000549 
	C1722.103882,516.938354 1721.041748,513.876221 1719.932617,510.427246 
z"/>
<path fill="#8852FF" opacity="1.000000" stroke="none" 
	d="
M1768.121460,500.035553 
	C1767.658203,502.232697 1767.194946,504.429810 1766.069824,506.793152 
	C1757.262939,499.796906 1749.093018,492.662384 1741.007690,485.433258 
	C1740.095459,484.617493 1739.660034,483.268463 1739.003418,482.166779 
	C1742.511719,482.183319 1746.020142,482.199890 1749.776245,482.927338 
	C1752.099243,486.008545 1753.953003,488.630829 1756.299805,490.691711 
	C1760.068970,494.001495 1764.164185,496.940063 1768.121460,500.035553 
z"/>
<path fill="#805BFF" opacity="1.000000" stroke="none" 
	d="
M1762.999023,519.676697 
	C1761.754272,519.681946 1760.387573,519.682861 1759.638428,519.002991 
	C1747.398804,507.897797 1735.232910,496.711304 1723.075439,485.516052 
	C1722.617188,485.094116 1722.409790,484.399963 1722.044678,483.499878 
	C1723.418945,482.790283 1724.833862,482.413483 1726.666260,482.433685 
	C1727.519897,483.514801 1727.836670,484.326447 1728.410278,484.864075 
	C1738.495728,494.316193 1748.576050,503.774567 1758.764648,513.114624 
	C1760.161499,514.395020 1762.130249,515.051453 1763.834229,515.996826 
	C1763.610962,517.116394 1763.387695,518.236023 1762.999023,519.676697 
z"/>
<path fill="#6C73FF" opacity="1.000000" stroke="none" 
	d="
M1723.118164,520.393311 
	C1725.816772,521.902954 1728.677002,523.575195 1731.073975,525.756470 
	C1735.822754,530.077698 1740.315796,534.679993 1744.957275,539.500000 
	C1739.156494,540.217163 1733.312744,540.600464 1727.655640,540.971497 
	C1726.207642,534.596924 1724.639038,527.691528 1723.118164,520.393311 
z"/>
<path fill="#8556FF" opacity="1.000000" stroke="none" 
	d="
M1738.569336,482.100586 
	C1739.660034,483.268463 1740.095459,484.617493 1741.007690,485.433258 
	C1749.093018,492.662384 1757.262939,499.796906 1765.760986,507.001007 
	C1765.803589,508.471649 1765.492920,509.900726 1764.668213,511.622375 
	C1762.860718,511.195343 1761.374390,510.689056 1760.304565,509.722015 
	C1752.073608,502.281006 1743.881592,494.795166 1735.785400,487.208008 
	C1734.275513,485.793121 1733.251099,483.860138 1732.002686,482.166229 
	C1734.046875,482.122284 1736.091187,482.078339 1738.569336,482.100586 
z"/>
<path fill="#8D4CFF" opacity="1.000000" stroke="none" 
	d="
M1768.435547,499.815338 
	C1764.164185,496.940063 1760.068970,494.001495 1756.299805,490.691711 
	C1753.953003,488.630829 1752.099243,486.008545 1750.032227,483.261414 
	C1757.182251,483.961823 1764.324097,485.039062 1771.794556,486.165924 
	C1770.649170,491.217743 1769.699463,495.406433 1768.435547,499.815338 
z"/>
<path fill="#6977FF" opacity="1.000000" stroke="none" 
	d="
M304.647095,117.044052 
	C305.304626,123.232262 305.652069,129.577072 305.999084,136.377945 
	C301.611542,138.705460 297.224457,140.576920 291.629272,142.963699 
	C294.041840,132.313263 299.043396,124.686241 304.647095,117.044052 
z"/>
<path fill="#815AFF" opacity="1.000000" stroke="none" 
	d="
M1731.589233,482.100281 
	C1733.251099,483.860138 1734.275513,485.793121 1735.785400,487.208008 
	C1743.881592,494.795166 1752.073608,502.281006 1760.304565,509.722015 
	C1761.374390,510.689056 1762.860718,511.195343 1764.494141,511.955872 
	C1764.611206,513.116150 1764.388184,514.235596 1763.999756,515.675903 
	C1762.130249,515.051453 1760.161499,514.395020 1758.764648,513.114624 
	C1748.576050,503.774567 1738.495728,494.316193 1728.410278,484.864075 
	C1727.836670,484.326447 1727.519897,483.514801 1727.041992,482.498352 
	C1728.392090,482.122131 1729.783936,482.078247 1731.589233,482.100281 
z"/>
<path fill="#8E4AFF" opacity="1.000000" stroke="none" 
	d="
M161.355057,217.962280 
	C160.694458,213.419983 160.347458,208.725281 160.000916,203.598389 
	C166.060272,203.166214 172.119171,203.166214 178.178070,203.166214 
	C178.392120,203.757126 178.606171,204.348022 178.820221,204.938934 
	C173.103027,209.229248 167.385834,213.519562 161.355057,217.962280 
z"/>
<path fill="#FFFFFF" opacity="1.000000" stroke="none" 
	d="
M1879.228149,476.268005 
	C1887.776367,463.414642 1899.679932,456.046906 1914.053101,452.484985 
	C1933.470093,447.673096 1952.023438,449.815460 1968.824951,461.057068 
	C1983.098267,470.607147 1990.799072,484.642120 1993.959351,501.316895 
	C1994.038940,501.737274 1993.787598,502.220367 1993.663574,502.800385 
	C1952.136963,502.800385 1910.688110,502.800385 1868.992676,502.800385 
	C1870.750732,493.265137 1873.469238,484.380402 1879.228149,476.268005 
z"/>
<path fill="#FFFFFF" opacity="1.000000" stroke="none" 
	d="
M1599.000000,546.055908 
	C1599.000000,548.043762 1598.846436,549.559448 1599.023560,551.035522 
	C1601.086914,568.232239 1591.721436,579.429199 1578.499023,587.628784 
	C1560.763306,598.627197 1541.349609,600.189270 1521.592651,593.919861 
	C1501.058716,587.403870 1494.395874,565.720215 1507.669678,548.983032 
	C1512.904541,542.382263 1520.912476,539.433655 1528.830566,539.224182 
	C1552.003906,538.611206 1575.203979,539.006165 1599.000000,539.006165 
	C1599.000000,540.705383 1599.000000,543.135437 1599.000000,546.055908 
z"/>
</svg>